<?xml version="1.0" standalone="no"?><!DOCTYPE svg PUBLIC "-//W3C//DTD SVG 1.1//EN" "http://www.w3.org/Graphics/SVG/1.1/DTD/svg11.dtd"><svg class="icon" viewBox="0 0 1024 1024" xmlns="http://www.w3.org/2000/svg" width="200" height="200"><path d="M532.476 146.469L453.515 191.9l29.946-73.202-78.96-45.432h97.9L532.477 0l29.883 73.202h97.901l-78.897 45.496 30.01 73.266-78.96-45.495zM212.344 531.164l-78.769 44.728 30.458-72.946-79.345-45.624h97.774l35.641-73.394 24.763 73.394h97.646l-79.345 45.624 30.458 72.946-79.345-44.728zm640.072-128.488l-79.345 45.304 30.522-73.394-79.345-45.24h97.71l13.245-73.33 47.16 73.33h97.71l-78.706 45.24 29.818 73.394-78.705-45.304zM601.263 255.952H463.561c-32.506 0-59.06 28.795-59.06 63.988v639.88c0 35.193 26.554 63.988 59.06 63.988h137.702c32.506 0 59.061-28.795 59.061-63.988V319.94c0-35.77-26.555-63.988-59.06-63.988zm-4.927 703.868H468.488V383.928h127.848V959.82zm-314.82-319.94H143.812c-32.506 0-59.06 28.795-59.06 63.988V959.82c0 35.193 26.554 63.988 59.06 63.988h137.702c32.506 0 59.061-28.795 59.061-63.988V703.868c0-35.193-26.555-63.988-59.06-63.988zm-4.928 319.94H148.74V767.856h127.784V959.82zm644.423-447.916H783.31c-32.506 0-59.06 28.795-59.06 63.988V959.82c0 35.193 26.554 63.988 59.06 63.988h137.702c32.506 0 59.061-28.795 59.061-63.988V575.892c0-35.77-26.555-63.988-59.06-63.988zm-4.927 447.916H788.236V639.88h127.848v319.94z" fill="#fabf13"/></svg>