<?xml version="1.0" encoding="utf-8"?>
<!-- Generator: Adobe Illustrator 22.0.0, SVG Export Plug-In . SVG Version: 6.00 Build 0)  -->
<svg version="1.1" id="图层_1" xmlns="http://www.w3.org/2000/svg" xmlns:xlink="http://www.w3.org/1999/xlink" x="0px" y="0px"
	 viewBox="0 0 150 150" style="enable-background:new 0 0 150 150;" xml:space="preserve">
<style type="text/css">
	.st0{fill:#FABF13;}
	.st1{fill:none;stroke:#FABF13;stroke-width:8;stroke-linejoin:round;stroke-miterlimit:10;}
</style>
<g>
	<path class="st0" d="M111,38.5H39.2C21.5,38.5,7,52.9,7,70.6v45.6c0,12.5,10.2,22.7,22.7,22.7h90.7c12.5,0,22.7-10.2,22.7-22.7
		V70.6C143.2,52.9,128.7,38.5,111,38.5z M135.8,109.9v6.4c0,8.4-6.9,15.3-15.3,15.3h-6.4C115.7,120.3,124.5,111.5,135.8,109.9z
		 M36.1,131.5h-6.4c-8.4,0-15.3-6.8-15.3-15.3v-6.4C25.7,111.5,34.5,120.3,36.1,131.5z M63,105.1h24.3c2,0,3.7-1.7,3.7-3.7V80.9
		h44.8v21.5c-15.3,1.7-27.5,13.9-29.2,29.1h-63c-1.7-15.2-13.9-27.4-29.2-29.1V80.9h44.8v20.5C59.3,103.5,60.9,105.1,63,105.1z
		 M67.3,73.5c1.3-2.8,4.1-4.7,7.2-4.7h1.1c3.1,0,6,1.9,7.2,4.7H67.3z M83.5,80.9v16.8H66.7V80.9H83.5z M135.8,73.5H90.6
		c-1.5-7-7.7-12.1-15-12.1h-1.1c-7.2,0-13.5,5.1-15,12.1H14.5v-2.8c0-13.7,11.1-24.8,24.8-24.8H111c13.7,0,24.8,11.1,24.8,24.8V73.5
		z"/>
	<path class="st0" d="M75.1,27.1c2,0,3.7-1.7,3.7-3.7V12c0-2-1.7-3.7-3.7-3.7c-2,0-3.7,1.7-3.7,3.7v11.4
		C71.4,25.5,73.1,27.1,75.1,27.1z"/>
	<path class="st0" d="M97.4,33.3c1,0,1.9-0.4,2.6-1.1l8.1-8.1c0.7-0.7,1.1-1.6,1.1-2.6s-0.4-1.9-1.1-2.6c-1.4-1.4-3.8-1.4-5.2,0
		L94.7,27c-0.7,0.7-1.1,1.6-1.1,2.6c0,1,0.4,1.9,1.1,2.6C95.4,32.9,96.4,33.3,97.4,33.3z"/>
	<path class="st0" d="M50.2,32.3c0.7,0.7,1.6,1.1,2.6,1.1c1,0,1.9-0.4,2.6-1.1c0.7-0.7,1.1-1.6,1.1-2.6c0-1-0.4-1.9-1.1-2.6
		l-8.1-8.1c-0.7-0.7-1.6-1.1-2.6-1.1c-1,0-1.9,0.4-2.6,1.1c-1.4,1.4-1.4,3.8,0,5.2L50.2,32.3z"/>
</g>
</svg>
