<?xml version="1.0" standalone="no"?><!DOCTYPE svg PUBLIC "-//W3C//DTD SVG 1.1//EN" "http://www.w3.org/Graphics/SVG/1.1/DTD/svg11.dtd"><svg class="icon" viewBox="0 0 1024 1024" xmlns="http://www.w3.org/2000/svg" width="200" height="200"><path d="M704.192 740.032a35.008 35.008 0 01-35.008-35.008V447.872c0-19.264 15.744-34.944 35.008-34.944h138.432c19.264 0 34.944 15.68 34.944 34.944v257.152a35.008 35.008 0 01-34.944 34.944H704.192zm35.008-70.016h68.416V482.88H739.2v187.136zm-558.016 70.016a35.008 35.008 0 01-35.008-35.008V321.792c0-19.264 15.744-35.008 35.008-35.008h138.432c19.264 0 35.008 15.744 35.008 35.008v383.232a35.008 35.008 0 01-35.008 34.944H181.12zm35.008-70.016h68.416V356.8h-68.416v313.216zm226.56 70.016a35.008 35.008 0 01-35.072-35.008V127.872c0-19.264 15.744-34.944 35.008-34.944h138.304c19.328 0 35.008 15.68 35.008 34.944v577.152a35.008 35.008 0 01-35.008 34.944h-138.24zm34.944-70.016h68.288V162.88h-68.416v507.136h.128zM110.4 865.6a34.944 34.944 0 01.128-70.016l803.072 2.048a34.944 34.944 0 01-.128 69.952L110.4 865.6z" fill="#fabf13"/></svg>