<?xml version="1.0" encoding="UTF-8" standalone="no"?>
<svg
   xmlns:dc="http://purl.org/dc/elements/1.1/"
   xmlns:cc="http://creativecommons.org/ns#"
   xmlns:rdf="http://www.w3.org/1999/02/22-rdf-syntax-ns#"
   xmlns:svg="http://www.w3.org/2000/svg"
   xmlns="http://www.w3.org/2000/svg"
   xmlns:sodipodi="http://sodipodi.sourceforge.net/DTD/sodipodi-0.dtd"
   xmlns:inkscape="http://www.inkscape.org/namespaces/inkscape"
   inkscape:version="1.0 (4035a4fb49, 2020-05-01)"
   sodipodi:docname="btm-pht.svg"
   id="svg8"
   version="1.1"
   width="406"
   height="150"
   viewBox="0 0 406 150">
  <metadata
     id="metadata14">
    <rdf:RDF>
      <cc:Work
         rdf:about="">
        <dc:format>image/svg+xml</dc:format>
        <dc:type
           rdf:resource="http://purl.org/dc/dcmitype/StillImage" />
        <dc:title></dc:title>
      </cc:Work>
    </rdf:RDF>
  </metadata>
  <defs
     id="defs12" />
  <sodipodi:namedview
     inkscape:current-layer="svg8"
     inkscape:window-maximized="1"
     inkscape:window-y="-9"
     inkscape:window-x="-9"
     inkscape:cy="75"
     inkscape:cx="203"
     inkscape:zoom="2.9901478"
     showgrid="false"
     id="namedview10"
     inkscape:window-height="1051"
     inkscape:window-width="1842"
     inkscape:pageshadow="2"
     inkscape:pageopacity="0"
     guidetolerance="10"
     gridtolerance="10"
     objecttolerance="10"
     borderopacity="1"
     bordercolor="#666666"
     pagecolor="#ffffff"
     inkscape:document-rotation="0" />
  <rect
     y="-1.6721581"
     x="1.3377265"
     id="rect2"
     fill="#fabf13"
     width="406"
     height="150"
     rx="15"
     ry="15" />
  <text
     style="stroke-width:2.36185"
     y="96.952911"
     x="258.10352"
     id="text4"
     fill="#ffffff"
     text-anchor="middle"
     font-size="47.4615px"
     font-weight="400"
     font-family="'Source Han Sans CN'"
     transform="scale(1.0366717,0.96462556)">拍照打卡</text>
  <path
     style="fill:#ffffff;stroke-width:0.740986"
     class="st0"
     d="m 52.045759,33.927814 c -0.518691,-0.518692 -1.18558,-0.815087 -1.926567,-0.815087 0,0 0,0 0,0 -0.740988,0 -1.407877,0.296395 -1.926569,0.815087 -0.518692,0.518692 -0.815087,1.185581 -0.815087,1.926569 v 3.630842 h -0.518691 c -6.742993,0 -12.226305,5.483315 -12.226305,12.226307 v 50.757688 c 0,6.74299 5.483312,12.22631 12.226305,12.22631 h 76.173585 c 6.74299,0 12.2263,-5.48332 12.2263,-12.22631 V 51.711532 c 0,-6.742992 -5.48331,-12.226307 -12.2263,-12.226307 v -0.518691 0.518691 h -2.51936 l -0.1482,-0.222296 c -3.18625,-5.779708 -7.18759,-9.262352 -10.74433,-9.262352 H 75.164592 c -3.55674,0 -7.55808,3.482644 -10.744326,9.262352 l -0.222294,0.222296 H 52.78675 v -3.630842 c 0,-0.740988 -0.222295,-1.407877 -0.740991,-1.926569 z m 77.877861,68.541406 c 0,3.77904 -3.03805,6.81709 -6.81709,6.81709 H 46.932943 c -3.779039,0 -6.817091,-3.03805 -6.817091,-6.81709 V 67.124087 h 19.413891 l -0.222295,0.666889 c -0.963285,2.815755 -1.481976,5.705606 -1.481976,8.669559 0,7.039389 2.741658,13.708285 7.780373,18.747001 4.96462,4.964624 11.633516,7.780374 18.747001,7.780374 7.039388,0 13.708279,-2.74165 18.747004,-7.780374 4.96461,-4.96462 7.78037,-11.63351 7.78037,-18.747001 0,-2.963953 -0.51869,-5.853804 -1.48198,-8.669559 l -0.22229,-0.666889 h 20.82177 z M 63.234686,77.127424 v -0.740986 c 0,-11.633516 9.484649,-21.118161 21.11816,-21.118161 11.633515,0 21.118164,9.484645 21.118164,21.118161 0,11.633516 -9.484649,21.118162 -21.118164,21.118162 -11.411216,0 -20.673565,-9.114153 -21.11816,-20.377176 z m 7.780373,-38.383187 c 1.18558,-1.556075 2.815755,-3.334447 4.075436,-3.334447 h 34.455945 c 1.33378,0 2.96395,1.852471 4.14954,3.334447 l 0.59279,0.740988 H 70.422272 Z m 52.091471,6.150201 c 3.77904,0 6.81709,3.038054 6.81709,6.817094 V 61.714873 H 106.3602 l -0.1482,-0.2223 C 101.24738,54.23089 93.09651,49.933159 84.352846,49.933159 c -8.74366,0 -16.968629,4.371833 -21.85915,11.559414 l -0.148194,0.2223 H 40.115852 V 51.711532 c 0,-3.77904 3.038052,-6.817094 6.817091,-6.817094 z"
     id="path4" />
</svg>
