<?xml version="1.0" encoding="UTF-8" standalone="no"?>
<svg
   xmlns:dc="http://purl.org/dc/elements/1.1/"
   xmlns:cc="http://creativecommons.org/ns#"
   xmlns:rdf="http://www.w3.org/1999/02/22-rdf-syntax-ns#"
   xmlns:svg="http://www.w3.org/2000/svg"
   xmlns="http://www.w3.org/2000/svg"
   xmlns:sodipodi="http://sodipodi.sourceforge.net/DTD/sodipodi-0.dtd"
   xmlns:inkscape="http://www.inkscape.org/namespaces/inkscape"
   inkscape:version="1.0 (4035a4fb49, 2020-05-01)"
   sodipodi:docname="btm-alb.svg"
   id="svg8"
   version="1.1"
   width="406"
   height="150"
   viewBox="0 0 406 150">
  <metadata
     id="metadata14">
    <rdf:RDF>
      <cc:Work
         rdf:about="">
        <dc:format>image/svg+xml</dc:format>
        <dc:type
           rdf:resource="http://purl.org/dc/dcmitype/StillImage" />
      </cc:Work>
    </rdf:RDF>
  </metadata>
  <defs
     id="defs12" />
  <sodipodi:namedview
     inkscape:current-layer="svg8"
     inkscape:window-maximized="1"
     inkscape:window-y="-9"
     inkscape:window-x="-9"
     inkscape:cy="75"
     inkscape:cx="203"
     inkscape:zoom="2.9901478"
     showgrid="false"
     id="namedview10"
     inkscape:window-height="1051"
     inkscape:window-width="1842"
     inkscape:pageshadow="2"
     inkscape:pageopacity="0"
     guidetolerance="10"
     gridtolerance="10"
     objecttolerance="10"
     borderopacity="1"
     bordercolor="#666666"
     pagecolor="#ffffff"
     inkscape:document-rotation="0" />
  <rect
     y="-1.6721581"
     x="1.3377265"
     id="rect2"
     fill="#fabf13"
     width="406"
     height="150"
     rx="15"
     ry="15" />
  <text
     style="stroke-width:2.36185"
     y="96.952911"
     x="258.10352"
     id="text4"
     fill="#ffffff"
     text-anchor="middle"
     font-size="47.4615px"
     font-weight="400"
     font-family="'Source Han Sans CN'"
     transform="scale(1.0366717,0.96462556)">相册上传</text>
  <g
     id="g12"
     transform="matrix(0.74557447,0,0,0.74557447,25.476492,18.606942)"
     style="fill:#ffffff">
    <path
       id="path4"
       d="m 38.9,60.5 c 8.6,0 15.6,-7 15.6,-15.6 0,-8.6 -7,-15.5 -15.6,-15.5 -8.6,0 -15.5,7 -15.5,15.5 0,8.6 7,15.6 15.5,15.6 z m 0,-24.2 c 4.7,0 8.6,3.9 8.6,8.6 0,4.7 -3.9,8.6 -8.6,8.6 -4.7,0 -8.6,-3.9 -8.6,-8.6 0.1,-4.7 3.9,-8.6 8.6,-8.6 z m 0,0"
       class="st0"
       style="fill:#ffffff" />
    <path
       id="path6"
       d="M 121.3,99.9 V 81.5 c 0,-0.7 -0.2,-1.4 -0.6,-2 L 97.2,45.6 c -0.6,-0.9 -1.7,-1.5 -2.8,-1.5 -1.1,0 -2.2,0.5 -2.8,1.4 L 75,66.9 68.5,60 c -0.7,-0.7 -1.6,-1.1 -2.6,-1.1 -1,0 -1.9,0.5 -2.6,1.2 L 41.6,85.6 34.4,79 c -0.7,-0.7 -1.7,-1 -2.6,-0.9 -1,0.1 -1.9,0.6 -2.5,1.3 L 15,97.7 c -0.8,1 -1,2.5 -0.4,3.7 0.6,1.2 1.8,2 3.1,2 h 100.1 c 2,0 3.5,-1.6 3.5,-3.5 z m -6.9,-3.5 H 24.8 l 7.6,-9.8 7.1,6.5 c 0.7,0.6 1.6,1 2.6,0.9 0.9,-0.1 1.8,-0.5 2.4,-1.2 l 21.6,-25.3 6.6,7.1 c 0.7,0.7 1.7,1.1 2.7,1.1 1,0 2,-0.5 2.6,-1.4 l 16.1,-20.9 20.2,29.1 z m 0,0"
       class="st0"
       style="fill:#ffffff" />
    <path
       id="path8"
       d="M 132.1,99.8 V 34.2 C 132.1,26 126,19.4 118.4,19.4 H 17.7 C 10.2,19.4 4,26 4,34.2 v 65.6 c 0,8.2 6.1,14.8 13.7,14.8 h 100.6 c 7.6,0 13.8,-6.6 13.8,-14.8 z m -121,0 V 34.2 c 0,-4.3 3,-7.8 6.7,-7.8 h 100.6 c 3.7,0 6.7,3.5 6.7,7.8 v 65.6 c 0,4.3 -3,7.8 -6.7,7.8 H 17.7 c -3.6,0 -6.6,-3.5 -6.6,-7.8 z m 0,0"
       class="st0"
       style="fill:#ffffff" />
    <path
       id="path10"
       d="m 137.3,34.5 v 9.1 c 1,1.3 1.2,2.6 1.2,4.5 v 65.6 c 0,4.3 -3,7.8 -6.7,7.8 H 31.2 c -2.2,0 -3.2,-0.3 -4.6,-2.2 -1.9,0 -6.1,0 -8.1,0 1.7,6.2 6.6,9.2 12.7,9.2 h 100.6 c 7.5,0 13.7,-6.6 13.7,-14.8 V 48.1 c 0,-6.2 -3.2,-11.4 -8.2,-13.6 z m 0,0"
       class="st0"
       style="fill:#ffffff" />
  </g>
</svg>
