<?xml version="1.0" encoding="utf-8"?>
<!-- Generator: Adobe Illustrator 22.0.0, SVG Export Plug-In . SVG Version: 6.00 Build 0)  -->
<svg version="1.1" id="图层_1" xmlns="http://www.w3.org/2000/svg" xmlns:xlink="http://www.w3.org/1999/xlink" x="0px" y="0px"
	 viewBox="0 0 150 150" style="enable-background:new 0 0 150 150;" xml:space="preserve">
<style type="text/css">
	.st0{fill:#FABF13;}
	.st1{fill:none;stroke:#FABF13;stroke-width:8;stroke-linejoin:round;stroke-miterlimit:10;}
</style>
<g>
	<path class="st0" d="M144,76.9l-57-55.7c-2.9-2.8-6.7-4.4-10.7-4.4c-4,0-7.8,1.5-10.7,4.4L8.8,77c-0.7,0.6-1,1.5-1.1,2.4l0,0l0,0
		c0.1,1.9,1.6,3.4,3.6,3.4c0,0,0,0,0,0c0.9,0,1.8-0.4,2.5-1l4.8-4.7v48.5c0.1,8.2,6.8,14.9,15,14.9c0,0,0.1,0,0.1,0h85.2
		c0,0,0.1,0,0.1,0c8.2,0,15-6.7,15-14.9V77.2l4.8,4.7c0.7,0.7,1.6,1,2.5,1c0,0,0,0,0,0c0.9,0,1.8-0.4,2.5-1c0.7-0.6,1.1-1.6,1.1-2.5
		C145.1,78.5,144.7,77.6,144,76.9z M126.9,70.4v55.3c0,4.4-3.6,7.9-8,7.9c0,0,0,0,0,0H33.9c0,0,0,0,0,0c-2.1,0-4.2-0.8-5.7-2.3
		c-1.5-1.5-2.3-3.5-2.3-5.6V70.1l44.8-43.9c1.5-1.5,3.5-2.3,5.7-2.3c0,0,0,0,0,0h0c2.1,0,4.2,0.8,5.7,2.3L126.9,70.4z"/>
	<path class="st0" d="M48.5,85.9c-0.1-0.1-0.1-0.2-0.2-0.3c-1-1.7-3.2-2.2-4.9-1.2c-0.8,0.5-1.4,1.3-1.6,2.2
		c-0.2,0.9-0.1,1.9,0.4,2.7c3.1,6.4,7.9,11.8,13.9,15.6c6,3.8,12.9,5.9,20,6l0,0l0,0c7.1-0.1,14-2.2,20-6.1
		c6-3.8,10.8-9.2,13.9-15.6c0.4-0.8,0.5-1.8,0.2-2.7c-0.3-0.9-0.9-1.7-1.8-2.1l0,0c-1.7-0.9-3.8-0.2-4.7,1.5l0,0
		c-3,6.7-8.4,12.1-15.1,15.1C73.3,107.9,55.4,101.1,48.5,85.9z"/>
</g>
</svg>
