<?xml version="1.0" encoding="utf-8"?>
<!-- Generator: Adobe Illustrator 22.0.0, SVG Export Plug-In . SVG Version: 6.00 Build 0)  -->
<svg version="1.1" id="图层_1" xmlns="http://www.w3.org/2000/svg" xmlns:xlink="http://www.w3.org/1999/xlink" x="0px" y="0px"
	 viewBox="0 0 150 150" style="enable-background:new 0 0 150 150;" xml:space="preserve">
<style type="text/css">
	.st0{fill:#FABF13;}
	.st1{fill:none;stroke:#FABF13;stroke-width:8;stroke-linejoin:round;stroke-miterlimit:10;}
</style>
<g>
	<path class="st0" d="M100.7,25.4C90.5,25.4,81,30.6,74.7,39C68.5,30.6,59,25.4,48.8,25.4c-18.4,0-33.3,16.3-33.3,36.4
		c0,12,5.3,20.4,9.7,27.2c12.5,19.7,44,44,45.3,45c1.3,1,2.8,1.5,4.3,1.5c1.5,0,3-0.5,4.3-1.5c1.4-1,32.8-25.5,45.3-45
		c4.3-6.8,9.7-15.2,9.7-27.2C134,41.8,119,25.4,100.7,25.4L100.7,25.4z M100.7,25.4"/>
</g>
</svg>
