<?xml version="1.0" encoding="utf-8"?>
<!-- Generator: Adobe Illustrator 22.0.0, SVG Export Plug-In . SVG Version: 6.00 Build 0)  -->
<svg version="1.1" id="图层_1" xmlns="http://www.w3.org/2000/svg" xmlns:xlink="http://www.w3.org/1999/xlink" x="0px" y="0px"
	 viewBox="0 0 150 150" style="enable-background:new 0 0 150 150;" xml:space="preserve">
<style type="text/css">
	.st0{fill:#FABF13;}
	.st1{fill:none;stroke:#FABF13;stroke-width:8;stroke-linejoin:round;stroke-miterlimit:10;}
</style>
<g>
	<path class="st0" d="M54.9,69.6c-1.2-0.6-2.6-0.4-3.5,0.5l-9.6,10.9l-7.1-5.8c-1.2-0.6-2.6-0.4-3.5,0.5c-0.6,1.2-0.4,2.6,0.5,3.5
		l8.6,7.1c0.4,0.4,1,0.6,1.5,0.5h0c1,0,1.5-0.5,2.5-1l11.1-12.6C56,71.9,55.8,70.5,54.9,69.6z"/>
	<path class="st0" d="M82.6,85.7C82.6,85.7,82.6,85.7,82.6,85.7l11.1-12.6c0.6-1.2,0.4-2.6-0.5-3.5c-1.2-0.6-2.6-0.4-3.5,0.5
		l-9.4,10.6l-6.8-5.6c-1.2-0.6-2.6-0.4-3.5,0.5c-0.6,1.2-0.4,2.6,0.5,3.5l8.5,7c0,0,0,0,0,0c0.4,0.3,0.8,0.5,1.3,0.5
		c0.1,0,0.1,0,0.2,0h0C81.4,86.7,82.1,86.3,82.6,85.7z"/>
	<path class="st0" d="M44.5,114.6l10.8-12.3c0.5-1,0.5-3-0.5-3.5c-1.2-0.6-2.6-0.4-3.5,0.5l-9.6,10.9l-6.5-5.4c-1-1-2.5-0.5-3.5,0.5
		c-0.6,1.2-0.4,2.6,0.5,3.5l8.1,7.1c0.4,0.4,1,0.6,1.5,0.5l0,0c1,0,1.5-0.5,2.5-1C44.4,115.2,44.5,114.9,44.5,114.6z"/>
	<path class="st0" d="M119.9,135.7l14.3-18.6c0.2-0.2,0.4-0.5,0.5-0.7c2.6-3.6,3.9-7.9,4-12.3c0-12-10-21.8-22.3-21.8
		C104,82.3,94,92,93.9,104c0,4.4,1.4,8.7,3.9,12.3c0.1,0.2,0.3,0.5,0.5,0.7l14.3,18.6c0.9,1.1,2.2,1.8,3.6,1.8v0.1
		C117.7,137.4,119,136.8,119.9,135.7z M102,113.8l-0.1-0.2c-2-2.8-3.1-6.1-3.1-9.6c0.1-9.3,8-16.9,17.6-16.9s17.5,7.6,17.5,16.9
		c0,3.4-1.1,6.8-3.1,9.6l-0.1,0.1l-0.2,0.2l-0.1,0.1l-14.1,18.4L102,113.8z"/>
	<path class="st0" d="M146.3,141.6c0,0-4.9-8.4-7.4-12.6c-0.7-1.2-2.2-1.5-3.3-0.9c-1.2,0.7-1.5,2.2-0.9,3.3l5.2,8.9l-47.3-0.3
		l5-8.5c0.4-0.7,0.4-1.7,0-2.4c-0.4-0.8-1.2-1.2-2.1-1.2c-0.9,0-1.7,0.5-2.1,1.2c-2.3,4-6.6,11.4-7.1,12.1c-0.4,0.7-0.4,1.7,0,2.4
		c0.4,0.8,1.2,1.2,2.1,1.2l55.8,0.3l0,0c0.9,0,1.7-0.5,2.1-1.2C146.7,143.3,146.7,142.3,146.3,141.6z"/>
	<path class="st0" d="M126.6,104.4c0-5.7-4.6-10.3-10.3-10.3c-5.7,0-10.3,4.6-10.3,10.3s4.6,10.3,10.3,10.3
		C122,114.7,126.6,110.1,126.6,104.4z M112.4,102.8c0.7-1.6,2.2-2.6,3.9-2.6c2.3,0,4.2,1.9,4.2,4.2c0,1.7-1,3.3-2.6,3.9
		c-1.6,0.7-3.4,0.3-4.6-0.9C112.1,106.2,111.8,104.3,112.4,102.8z"/>
	<path class="st0" d="M80.9,128.5H26.8c-4.7,0-8.5-3.8-8.5-8.5V59.5h117.4v20.9c0,1.9,1.5,3.4,3.4,3.4c1.9,0,3.4-1.5,3.4-3.4V29.6
		c0-8.5-6.9-15.4-15.4-15.4h-10.9V7c0-0.9-0.5-1.7-1.3-2.2c-0.8-0.5-1.7-0.5-2.5,0c-0.8,0.5-1.3,1.3-1.3,2.2v7.1H78.6V7
		c0-0.9-0.5-1.7-1.3-2.2c-0.8-0.5-1.7-0.5-2.5,0C74,5.3,73.5,6.1,73.5,7v7.1H40.7V7c0-0.9-0.5-1.7-1.3-2.2c-0.8-0.5-1.7-0.5-2.5,0
		c-0.8,0.5-1.3,1.3-1.3,2.2v7.1h-8.9c-8.5,0-15.4,6.9-15.4,15.4V120c0,8.5,6.9,15.4,15.4,15.4h54.1c1.9,0,3.4-1.5,3.4-3.4
		C84.3,130.1,82.8,128.5,80.9,128.5z M26.8,21h8.9v7.2c0,0.7,0.2,1.3,0.7,1.8c0.5,0.5,1.1,0.7,1.8,0.7c1.3,0.1,2.4-0.8,2.5-2V21
		h32.8v7.2c0,0.7,0.2,1.3,0.7,1.8c0.5,0.5,1.1,0.7,1.8,0.7c1.3,0.1,2.4-0.8,2.5-2V21h32.8v7.2c0,0.7,0.2,1.3,0.7,1.8
		c0.5,0.5,1.1,0.7,1.8,0.7c1.3,0.1,2.4-0.8,2.5-2V21h10.9c4.7,0,8.5,3.8,8.5,8.5v24.9H18.3V29.6C18.3,24.9,22.1,21.1,26.8,21z"/>
</g>
</svg>
