<svg xmlns="http://www.w3.org/2000/svg" height="200" width="200" viewBox="0 0 1024 1024" class="icon"><path fill="#fabf13" d="M147.749 1024H876.25c61.148 0 111.178-49.006 111.178-103.497V103.497C987.429 43.52 937.399 0 876.25 0H147.75C86.6 0 36.57 49.006 36.57 103.497v811.52c0 59.977 50.03 108.983 111.178 108.983zm-33.354-920.503c0-16.384 16.677-32.695 33.354-32.695H876.25c16.677 0 33.354 16.311 33.354 32.695v811.52c0 16.311-16.677 32.622-33.354 32.622H147.75c-16.677 0-33.354-16.311-33.354-32.622v-811.52z"/><path fill="#fabf13" d="M458.167 361.618h345.746c21.212 0 37.23-14.775 37.23-34.523 0-19.749-15.945-34.524-37.303-34.524h-345.6c-21.285 0-37.303 14.775-37.303 34.524 0 19.748 16.018 34.523 37.303 34.523zm0 177.518h345.746c21.212 0 37.23-14.775 37.23-34.523 0-19.749-15.945-29.623-37.303-29.623h-345.6c-21.285 0-37.303 14.848-37.303 34.523 0 19.749 21.285 29.623 37.303 29.623zm0 192.293h345.746c21.212 0 37.23-14.775 37.23-34.524 0-19.748-15.945-34.523-37.303-34.523h-345.6c-21.285 0-37.303 14.775-37.303 34.523 5.34 19.749 21.285 34.524 37.303 34.524zM293.23 361.619h31.89c21.285 0 37.303-14.776 37.303-34.524 0-19.749-21.285-29.623-37.303-29.623h-31.817c-21.212 0-37.23 14.848-37.23 29.623s15.945 34.523 37.303 34.523zm0 177.517h31.89c21.285 0 37.303-14.775 37.303-34.523 0-19.749-16.018-29.623-37.303-29.623h-31.817c-21.212 0-37.23 14.848-37.23 34.523 0 19.749 15.945 29.623 37.303 29.623zm0 192.293h31.89c21.285 0 37.303-14.775 37.303-34.524 0-19.748-16.018-34.523-37.303-34.523h-31.817c-21.212 0-37.23 14.775-37.23 34.523 0 19.749 15.945 34.524 37.303 34.524z"/></svg>