<?xml version="1.0" encoding="UTF-8" standalone="no"?>
<svg
   xmlns:dc="http://purl.org/dc/elements/1.1/"
   xmlns:cc="http://creativecommons.org/ns#"
   xmlns:rdf="http://www.w3.org/1999/02/22-rdf-syntax-ns#"
   xmlns:svg="http://www.w3.org/2000/svg"
   xmlns="http://www.w3.org/2000/svg"
   xmlns:sodipodi="http://sodipodi.sourceforge.net/DTD/sodipodi-0.dtd"
   xmlns:inkscape="http://www.inkscape.org/namespaces/inkscape"
   viewBox="0 0 406 150"
   height="150"
   width="406"
   version="1.1"
   id="svg8"
   sodipodi:docname="lock.svg"
   inkscape:version="1.0 (4035a4fb49, 2020-05-01)">
  <metadata
     id="metadata14">
    <rdf:RDF>
      <cc:Work
         rdf:about="">
        <dc:format>image/svg+xml</dc:format>
        <dc:type
           rdf:resource="http://purl.org/dc/dcmitype/StillImage" />
        <dc:title></dc:title>
      </cc:Work>
    </rdf:RDF>
  </metadata>
  <defs
     id="defs12" />
  <sodipodi:namedview
     inkscape:document-rotation="0"
     pagecolor="#ffffff"
     bordercolor="#666666"
     borderopacity="1"
     objecttolerance="10"
     gridtolerance="10"
     guidetolerance="10"
     inkscape:pageopacity="0"
     inkscape:pageshadow="2"
     inkscape:window-width="1842"
     inkscape:window-height="1051"
     id="namedview10"
     showgrid="false"
     inkscape:zoom="2.9901478"
     inkscape:cx="203"
     inkscape:cy="75"
     inkscape:window-x="-9"
     inkscape:window-y="-9"
     inkscape:window-maximized="1"
     inkscape:current-layer="svg8" />
  <text
     transform="scale(1.0366717,0.96462555)"
     font-family="'Source Han Sans CN'"
     font-weight="400"
     font-size="47.4615px"
     text-anchor="middle"
     fill="#ffffff"
     id="text4"
     x="90.996048"
     y="104.58022"
     style="fill:#666666;stroke-width:2.36185">点击</text>
  <g
     transform="matrix(0.47828669,0,0,0.47828669,94.146705,41.191595)"
     id="g19">
    <path
       id="path6"
       fill="#fab517"
       p-id="2658"
       d="M 139.43114,45.544292 V 164.21088 H 326.09768 V 45.544292 Z m 93.33327,11.999992 a 26.666648,26.666648 0 0 1 26.66665,26.666644 24.26665,24.26665 0 0 1 -13.33332,22.666662 V 140.2109 H 219.43109 V 105.54426 A 25.866648,25.866648 0 0 1 206.09777,82.877598 26.666648,26.666648 0 0 1 232.76441,57.544284 Z"
       style="stroke-width:0.195312" />
    <path
       id="path8"
       fill="#fab517"
       p-id="2659"
       d="m 232.76441,-35.788987 a 61.999959,61.999959 0 0 0 -61.33329,61.333293 v 75.999954 a 61.999959,61.999959 0 0 0 61.33329,61.33328 61.999959,61.999959 0 0 0 61.33329,-61.33328 V 25.544306 a 61.199959,61.199959 0 0 0 -61.33329,-61.333293 z m 34.66665,138.666577 a 35.333311,35.333311 0 0 1 -21.33332,31.99998 v 6.66666 h -26.66665 v -6.66666 A 35.333311,35.333311 0 0 1 198.09777,102.87759 V 26.877638 a 35.333311,35.333311 0 0 1 34.66664,-34.6666432 34.399977,34.399977 0 0 1 34.66665,34.6666432 z"
       style="stroke-width:0.195312" />
  </g>
  <text
     style="fill:#666666;stroke-width:2.36185"
     y="106.41907"
     x="310.51819"
     id="text4-7"
     fill="#ffffff"
     text-anchor="middle"
     font-size="47.4615px"
     font-weight="400"
     font-family="'Source Han Sans CN'"
     transform="scale(1.0366717,0.96462555)">解锁</text>
</svg>
