<?xml version="1.0" encoding="utf-8"?>
<!-- Generator: Adobe Illustrator 22.0.0, SVG Export Plug-In . SVG Version: 6.00 Build 0)  -->
<svg version="1.1" id="图层_1" xmlns="http://www.w3.org/2000/svg" xmlns:xlink="http://www.w3.org/1999/xlink" x="0px" y="0px"
	 viewBox="0 0 150 150" style="enable-background:new 0 0 150 150;" xml:space="preserve">
<style type="text/css">
	.st0{fill:#FABF13;}
	.st1{fill:none;stroke:#FABF13;stroke-width:8;stroke-linejoin:round;stroke-miterlimit:10;}
</style>
<g>
	<path class="st0" d="M143.6,36.5l-14.2-4.3c-2.6-13.6-14.9-24-29.6-24c-14.5,0-26.7,10-29.6,23.3l-17.4,5.2c-2,0.8-4.2,0.9-4.6,0.9
		c-0.7,0-2.3-0.4-4.3-1L9.6,26.8c-0.7-0.4-1.5-0.4-2.2-0.4c-4.1,0-7.4,3.4-7.4,7.4v87.9c0,3.4,2.2,6.3,5.2,7.1l41,12.7
		c1.1,0.3,1.5,0.4,2.2,0.4c0.7,0,1-0.1,1.9-0.4l48-13.8c0.8-0.3,1.5-0.4,1.9-0.4c0.7,0,1.3,0.1,2.2,0.4l36.5,11.2
		c0.7,0.4,1.5,0.4,2.2,0.4c4.1,0,7.4-3.4,7.4-7.4l0-88.3C148.9,40.2,146.6,37.2,143.6,36.5z M48.3,45.9v88.5l-41-12.7V33.9
		c0,0,41,11.2,41,11.5V45.9z M99.9,14.7c13,0,23.6,10.2,23.6,22.8c0,4.7-1.5,9.2-4.2,13l-0.1,0.1l-0.2,0.3l-0.1,0.1L99.8,75.8
		L80.5,50.8l-0.1-0.3c-2.7-3.8-4.2-8.3-4.2-12.9C76.3,24.9,86.9,14.7,99.9,14.7z M104.2,120.7V97.9c0-2.2-1.5-3.7-3.7-3.7
		c-2.2,0-3.7,1.5-3.7,3.7v22.8l-41,11.5V45.4c0-0.7,0-1.2,0-2l13.9-4c0.4,5.3,2.2,10.4,5.3,14.7c0.2,0.3,0.4,0.6,0.6,0.9l19.3,25.1
		c1.2,1.5,3,2.4,4.9,2.4v0.1c1.9,0,3.7-0.9,4.9-2.4L124,55.2c0.3-0.3,0.5-0.6,0.7-1c3.1-4.3,4.9-9.4,5.3-14.7l11.9,3.7l0,89
		L104.2,120.7z"/>
	<path class="st0" d="M99.9,52c7.7,0,13.9-6.2,13.9-13.9c0-7.7-6.2-13.9-13.9-13.9S86,30.4,86,38.1S92.2,52,99.9,52z M94.6,35.9
		c0.9-2.1,3-3.5,5.3-3.5c3.2,0,5.7,2.6,5.7,5.7c0,2.3-1.4,4.4-3.5,5.3c-2.1,0.9-4.6,0.4-6.2-1.2C94.2,40.5,93.7,38,94.6,35.9z"/>
</g>
</svg>
