<?xml version="1.0" encoding="utf-8"?>
<!-- Generator: Adobe Illustrator 22.0.0, SVG Export Plug-In . SVG Version: 6.00 Build 0)  -->
<svg version="1.1" id="图层_1" xmlns="http://www.w3.org/2000/svg" xmlns:xlink="http://www.w3.org/1999/xlink" x="0px" y="0px"
	 viewBox="0 0 150 150" style="enable-background:new 0 0 150 150;" xml:space="preserve">
<style type="text/css">
	.st0{fill:#FABF13;}
	.st1{fill:none;stroke:#FABF13;stroke-width:8;stroke-linejoin:round;stroke-miterlimit:10;}
</style>
<path class="st0" d="M82.4,116.4L82.4,116.4l29.8-38.9c0.4-0.4,0.7-0.9,1-1.4l0-0.1c5.3-7.5,8.1-16.2,8.2-25.4
	C121.5,26.1,100.9,6,75.5,6c-25.3,0-45.9,20-46,44.6c0,9.2,2.8,17.9,8.1,25.4l0,0.1c0.3,0.5,0.6,0.9,0.9,1.3l0,0l29.8,38.9
	c1.7,2.2,4.3,3.5,7,3.4l0.6,0v0.1C78.6,119.6,80.9,118.4,82.4,116.4z M75.5,110.9l-30-39l-1.6-2.4c-3.7-5.6-5.6-12.1-5.6-18.9
	c0.2-19.8,16.9-35.9,37.3-35.9c20.5,0,37.1,16.1,37.1,35.8c-0.1,7.4-7.3,21.3-7.3,21.3L75.5,110.9z"/>
<path class="st0" d="M75.6,30.7c-11.5,0-20.9,9.4-20.9,20.9c0,11.5,9.4,20.9,20.9,20.9c11.5,0,20.9-9.4,20.9-20.9
	C96.4,40,87.1,30.7,75.6,30.7z M79.2,60.3C78,60.8,76.8,61,75.6,61c-2.5,0-4.9-1-6.7-2.8c-2.7-2.7-3.5-6.8-2.1-10.3
	c1.5-3.6,4.9-5.9,8.8-5.9c5.2,0,9.5,4.3,9.5,9.5C85.1,55.4,82.8,58.8,79.2,60.3z"/>
<path class="st0" d="M142.2,125.3L142.2,125.3l-3.9-7.1c-3.3-5.9-11-10.4-17.9-10.4h-13.8c-2,0-3.7,1.6-3.7,3.5
	c0,1.9,1.6,3.5,3.7,3.5h13.8c4.2,0,9.5,3.1,11.5,6.7l3.9,7.1c0.9,1.6,1.3,2.9,1.2,4l0,0.9l-0.7,0.8c-1.1,1.3-3.2,1.5-4.6,1.5H19.7
	c-2.6,0-4.3-0.7-5.2-2.1c-0.9-1.4-0.7-3.2,0.4-5.5l2.7-5.4c1.8-3.6,6.9-6.8,10.9-6.8h11.7c2,0,3.6-1.6,3.6-3.5
	c0-1.9-1.6-3.5-3.6-3.5H28.6c-7,0-14.5,4.7-17.5,10.8l-2.7,5.4c-2.1,4.4-2.2,8.8,0,12.2c2.2,3.5,6.3,5.5,11.4,5.5h111.9
	c5.1,0,9.2-2,11.2-5.4C144.8,134.1,144.6,129.7,142.2,125.3z"/>
</svg>
