<?xml version="1.0" encoding="utf-8"?>
<!-- Generator: Adobe Illustrator 22.0.0, SVG Export Plug-In . SVG Version: 6.00 Build 0)  -->
<svg version="1.1" id="图层_1" xmlns="http://www.w3.org/2000/svg" xmlns:xlink="http://www.w3.org/1999/xlink" x="0px" y="0px"
	 viewBox="0 0 150 150" style="enable-background:new 0 0 150 150;" xml:space="preserve">
<style type="text/css">
	.st0{fill:#FABF13;}
	.st1{fill:none;stroke:#FABF13;stroke-width:8;stroke-linejoin:round;stroke-miterlimit:10;}
</style>
<g>
	<path class="st0" d="M96.8,73.9L96.8,73.9c-1,0-1.8,0.4-2.5,1l-26.3,26.3L52.4,85.8c-0.7-0.7-1.6-1-2.5-1c-1,0-1.8,0.4-2.5,1
		c-0.7,0.7-1,1.6-1,2.5c0,1,0.4,1.8,1,2.5l18,18c0.7,0.7,1.6,1,2.5,1c0.9,0,1.9-0.4,2.5-1L99.3,80c0.7-0.7,1-1.6,1-2.5
		c0-1-0.4-1.8-1-2.5C98.6,74.3,97.7,73.9,96.8,73.9z"/>
	<path class="st0" d="M47.8,13c-2,0-3.6,1.6-3.6,3.6v6.6h-22c-2.3,0-4.5,0.9-6.1,2.5c-1.6,1.6-2.5,3.8-2.5,6.1v91.9
		c0,2.3,0.9,4.5,2.5,6.1c1.6,1.6,3.8,2.5,6.1,2.5h102.1c2.3,0,4.5-0.9,6.1-2.5c1.6-1.6,2.5-3.8,2.5-6.1V31.8c0-2.3-0.9-4.5-2.5-6.1
		c-1.6-1.6-3.8-2.5-6.1-2.5h-22v-6.6c0-2-1.6-3.6-3.6-3.6c-2,0-3.6,1.6-3.6,3.6v6.6H51.4v-6.6C51.4,14.6,49.8,13,47.8,13z
		 M125.9,125.2H20.8V60.9h105.1V125.2z M95.3,30.3v6.6c0,2,1.6,3.6,3.6,3.6c2,0,3.6-1.6,3.6-3.6v-6.6h23.5v23.5H20.8V30.3h23.5v6.6
		c0,2,1.6,3.6,3.6,3.6c2,0,3.6-1.6,3.6-3.6v-6.6H95.3z"/>
</g>
</svg>
