<?xml version="1.0" encoding="utf-8"?>
<!-- Generator: Adobe Illustrator 22.0.0, SVG Export Plug-In . SVG Version: 6.00 Build 0)  -->
<svg version="1.1" id="图层_1" xmlns="http://www.w3.org/2000/svg" xmlns:xlink="http://www.w3.org/1999/xlink" x="0px" y="0px"
	 viewBox="0 0 150 150" style="enable-background:new 0 0 150 150;" xml:space="preserve">
<style type="text/css">
	.st0{fill:#FABF13;}
	.st1{fill:none;stroke:#FABF13;stroke-width:8;stroke-linejoin:round;stroke-miterlimit:10;}
</style>
<g>
	<path class="st0" d="M98.1,26.8c0.9,0,1.9,0.2,2.8,0.5c2.1,0.7,3.7,2.2,4.7,4.2c0.9,2,1.1,4.2,0.3,6.3c-0.8,2.3-2.4,3.6-3.6,4.3
		c-0.3,0.2-0.5,0.3-0.8,0.5l-8.5,6.6l-2.4-10.3c-0.1-0.3-0.2-0.7-0.3-1c-0.5-1.3-0.9-3.3,0-5.6C91.5,29,94.6,26.8,98.1,26.8
		 M98.1,19.4c-6.4,0-12.5,4-14.8,10.4c-1.3,3.6-1.2,7.3,0.1,10.6l0,0l4.2,17.7l0,0c0.2,0.9,0.8,1.6,1.7,1.9c0.3,0.1,0.6,0.2,0.9,0.2
		c0.6,0,1.2-0.2,1.6-0.6l0,0l14.3-11.1c3-1.8,5.5-4.6,6.8-8.2c2.9-8.2-1.4-17.1-9.5-20C101.6,19.7,99.8,19.4,98.1,19.4L98.1,19.4z"
		/>
	<path class="st0" d="M126.5,67.5c2.4,0,4.7,0.5,6.8,1.6c3.7,1.8,6.5,5,7.8,8.9c1.3,3.9,1.1,8.1-0.8,11.8c-1.3,2.6-3.3,4.8-5.8,6.4
		c-2.4,1.5-5.2,2.3-8.1,2.3c-2.4,0-4.7-0.5-6.8-1.6c-3.3-1.6-5.8-4.2-7.3-7.6c-0.2-0.3-0.3-0.7-0.5-1l-10.7-17.8l20.6-2.4
		c0.4,0,0.8-0.1,1.1-0.2C124.1,67.7,125.3,67.5,126.5,67.5 M126.5,60.1c-1.8,0-3.6,0.2-5.4,0.6v0l-26.3,3.1l0,0
		c-1.3,0.1-2.5,0.9-3.1,2.1c-0.6,1.2-0.5,2.6,0.2,3.7l0,0l13.6,22.6l0,0c2.1,4.7,5.8,8.7,10.8,11.2c3.2,1.6,6.7,2.4,10.1,2.4
		c8.4,0,16.5-4.7,20.5-12.8c5.6-11.3,0.9-25-10.4-30.6C133.3,60.9,129.9,60.1,126.5,60.1L126.5,60.1z"/>
	<path class="st0" d="M36.6,39.5c10.3,0,20.1,3.3,28.2,9.6c3.9,3,7.3,6.6,10.1,10.7c2.8,4.1,5,8.7,6.3,13.5c0.1,0.3,0.2,0.6,0.2,0.9
		l0.1,0.2l0,0.2c0.1,0.5,0.2,1,0.3,1.4c0,0.1,0,0.2,0.1,0.2c0,0.1,0,0.2,0.1,0.4l0,0.1c0,0,0,0.1,0,0.1c1.2,5.4,1.8,11,1.9,16.8
		c0,0.2,0,0.4,0,0.5l0,0.1c0,4.8-0.5,9.7-1.4,14.5c-0.8,4.3-1.9,8.5-3.4,12.6c-0.8,2.2-1.5,4.1-2.3,5.7c-0.1,0.2-0.1,0.3-0.2,0.4
		c0,0,0,0.1,0,0.1c0,0,0,0.1-0.1,0.1c0,0.1-0.1,0.1-0.1,0.2c-0.5,0.9-1.4,1.7-2.4,2.2c-0.3,0.2-0.6,0.3-0.9,0.5c-0.3,0-0.5,0-0.8,0
		h0c-0.1,0-0.2-0.1-0.3-0.2c0,0,0,0,0-0.1c0,0,0-0.1-0.1-0.1c-0.4-0.7-0.8-1.4-1.2-2c-0.8-1.3-1.7-2.7-2.7-4.1
		c-0.9-1.3-1.9-2.6-2.8-3.8c-0.1-0.1-0.2-0.2-0.2-0.3c-1.7-2.2-3.5-4.3-5.5-6.4c-5.2-5.6-11.1-10.5-17.5-14.7
		c-4.9-3.2-10-5.9-15.3-8.1c-0.2-0.1-0.4-0.2-0.6-0.2c-1.1-0.4-2.3-0.9-3.5-1.4C13.6,84.8,7.8,75.7,7.8,65.6c0-6.1,2.2-12,6.1-16.7
		c3.9-4.6,9.3-7.7,15.2-8.8c0.6-0.1,1.3-0.2,2.1-0.3c0,0,0,0,0,0C32.9,39.6,34.8,39.5,36.6,39.5 M36.6,32.1c-2.1,0-4.3,0.1-6.3,0.4
		c-0.8,0.1-1.7,0.2-2.5,0.4C12.2,35.7,0.4,49.3,0.4,65.6C0.4,79.1,8.4,90.7,20,96c0,0,0,0,0,0c0,0,0,0,0,0c1.3,0.4,2.5,0.9,3.7,1.4
		c0,0,0,0,0.1,0c5,2.1,9.8,4.6,14.3,7.5c5.9,3.9,11.3,8.4,16.1,13.5c1.8,1.9,3.5,3.9,5.1,5.9c0,0,0,0,0,0c1,1.2,1.9,2.5,2.8,3.8
		c0.9,1.2,1.7,2.5,2.5,3.8c0.4,0.5,0.7,1.1,1,1.7c0.1,0.2,0.3,0.5,0.4,0.7c1.4,2,3.6,3.4,6.2,3.5c0,0,0,0,0,0c0,0,0,0,0,0
		c0,0,0,0,0,0c0,0,0,0,0,0h0c0,0,0.1,0,0.1,0l0.4,0.7l2,3l1.6-3.2l0.8-1.7c2.4-1.2,4.5-3.1,5.7-5.4c0.1-0.3,0.3-0.5,0.4-0.8
		c0-0.1,0.1-0.2,0.1-0.3c0.9-2.1,1.8-4.2,2.6-6.4c1.6-4.4,2.9-9,3.7-13.7c1-5.2,1.5-10.5,1.5-15.9c0-0.2,0-0.4,0-0.6
		c0-6.3-0.7-12.4-2.1-18.3c-0.1-0.2-0.1-0.5-0.2-0.8c-0.1-0.6-0.3-1.2-0.4-1.8c-0.1-0.4-0.2-0.9-0.3-1.3
		C82,48.7,61.2,32.1,36.6,32.1L36.6,32.1z"/>
</g>
</svg>
