<?xml version="1.0" encoding="UTF-8" standalone="no"?><svg xmlns="http://www.w3.org/2000/svg" height="66.865" width="224.999"><defs><clipPath id="a" clipPathUnits="userSpaceOnUse"><path d="M90.239 36.352v-3.097h1.9V20.129h-1.9v-3.097h7.501v3.097h-1.739v16.223zm-47.575 0v-3.264h2.087V20.297h-2.087v-3.265h15.325v6.153h-3.325v-2.888h-5.388v5.069h4.35v3.264h-4.35v4.458h5.388v-2.861h3.325v6.125zm-17.076 0v-3.264h2.088V20.297h-2.088v-3.265h15.325v6.153h-3.324v-2.888h-5.388v5.069h4.35v3.264h-4.35v4.458h5.388v-2.861h3.324v6.125zm-17.875 0v-3.264H9.85V20.297H7.713v-3.265h7.938c1.841 0 3.272.165 4.294.494 1.02.327 1.854.948 2.499 1.861.646.912.969 2.006.969 3.285 0 2.221-1.042 3.764-3.125 4.625 1.633.778 2.45 2.105 2.45 3.986 0 1.175-.313 2.201-.937 3.076-.625.875-1.367 1.426-2.225 1.653-.859.227-2.167.34-3.925.34zm6.663-3.264h1.125c1.009 0 1.714-.158 2.118-.472.404-.316.607-.857.607-1.625 0-.843-.209-1.43-.626-1.764-.416-.333-1.066-.5-1.949-.5h-1.275zm0-7.625h1.275c1.083 0 1.873-.197 2.369-.591.495-.394.743-1.08.743-2.061 0-.937-.229-1.59-.688-1.959-.457-.371-1.267-.555-2.424-.555h-1.275zm86.807 3.466c-1.23-1.256-1.844-2.975-1.844-5.161 0-2.185.614-3.905 1.844-5.16 1.23-1.255 2.736-1.881 4.519-1.881 1.817 0 3.331.634 4.543 1.903 1.214 1.268 1.819 2.981 1.819 5.138 0 2.186-.612 3.905-1.837 5.161-1.224 1.253-2.734 1.882-4.525 1.882-1.783 0-3.289-.629-4.519-1.882m2.713-7.848c-.397.68-.594 1.544-.594 2.591 0 2.555.796 3.833 2.388 3.833.741 0 1.329-.321 1.762-.965.433-.643.65-1.541.65-2.687 0-1.306-.223-2.266-.669-2.876-.445-.611-1.027-.918-1.743-.918-.801 0-1.399.341-1.794 1.022m48.82 7.667c-1.017-1.293-1.525-2.951-1.525-4.98 0-2.019.493-3.678 1.48-4.98.989-1.3 2.182-1.951 3.582-1.951 1.192 0 2.417.626 3.675 1.876v-1.028c0-1.417-.294-2.37-.882-2.861-.587-.491-1.31-.736-2.168-.736-.985 0-1.963.334-2.938 1l-1.875-2.847c1.183-.973 2.983-1.459 5.4-1.459 4.217 0 6.326 2.219 6.326 6.658v9.94h2v3.098h-5.863v-1.65c-.917 1.237-2.079 1.858-3.487 1.858-1.467 0-2.709-.648-3.725-1.938m3.069-7.486c-.422.643-.632 1.474-.632 2.493 0 1.018.203 1.852.606 2.5.404.647.989.973 1.757.973.749 0 1.341-.315 1.774-.946.434-.629.651-1.485.651-2.57 0-1.082-.237-1.922-.706-2.52-.472-.597-1.046-.895-1.719-.895-.734 0-1.311.321-1.731.965m-14.945 7.965v1.251h-5.713V27.38h1.851v-7.251h-1.851v-3.097h7.575v3.097h-1.862v6.07c.75.584 1.483.875 2.201.875.407 0 .701-.133.881-.403.179-.269.269-.768.269-1.5v-8.139h5.687v3.097h-1.825v5.362c0 3.463-1.221 5.195-3.662 5.195-1.2 0-2.384-.487-3.551-1.459m-19.857.381c-.771-.717-1.264-1.567-1.481-2.548v3.418h-5.638V27.38h2.101v-7.251h-2.238v-3.097h8.513v3.097h-2.412v1.653c0 1.111.199 2.074.599 2.89.401.814.908 1.342 1.526 1.583.617.24 1.412.361 2.387.361v4.056c-.242.008-.45.014-.625.014-1.05 0-1.96-.36-2.732-1.078m-41.368-.818v1.688h-5.563V27.38h1.699V14.059h-2.036v-3.096h8.324v3.096h-2.424v4.348c1.065-1.12 2.244-1.68 3.537-1.68 1.583 0 2.85.653 3.8 1.958.95 1.306 1.424 2.955 1.424 4.945 0 1.88-.46 3.525-1.381 4.937-.921 1.411-2.181 2.119-3.781 2.119-1.325 0-2.525-.632-3.599-1.896m.637-7.702c-.451.648-.676 1.505-.676 2.569 0 1.186.228 2.077.682 2.675.454.596 1.044.896 1.769.896.716 0 1.294-.293 1.731-.876.438-.584.656-1.463.656-2.64 0-1.231-.22-2.138-.663-2.722-.441-.583-1.008-.874-1.7-.874-.749 0-1.35.323-1.799.972m45.976 9.39V27.38h1.837v-7.251h-1.837v-3.097h7.5v3.097h-1.8v10.349zm-57.552 0l-2.387-3.681-2.176 3.681h-4.649V27.38h1.75l2.612-3.778-2.612-3.473h-1.75v-3.097h3.75l2.525 3.779 2.351-3.779h4.637v3.097h-1.625l-2.851 4.014 2.45 3.237h1.626v3.098z"/></clipPath><clipPath id="b" clipPathUnits="userSpaceOnUse"><path d="M0 107.798h173.504V0H0z"/></clipPath><clipPath id="c" clipPathUnits="userSpaceOnUse"><path d="M117.239 94.557l37.064-16.31c-2.623 11.201-12.675 19.541-24.672 19.541a25.238 25.238 0 01-12.392-3.231"/></clipPath><clipPath id="e" clipPathUnits="userSpaceOnUse"><path d="M126.849 34.205s2.346-3.311 4.72-.019l5.214 7.228-21.798 9.592a8322.234 8322.234 0 0111.864-16.801"/></clipPath><clipPath id="g" clipPathUnits="userSpaceOnUse"><path d="M104.29 72.448c0-.657.052-1.308.145-1.953l40.477-17.81 4.375 6.066s2.374 3.291 2.372 3.291c0 0 .002 0 0 0 0 0-.003 0 .827 1.685.06.123.123.252.192.388l-45.53 20.033a25.231 25.231 0 01-2.858-11.7"/></clipPath><clipPath id="i" clipPathUnits="userSpaceOnUse"><path d="M0 107.798h173.504V0H0z"/></clipPath><linearGradient id="d" spreadMethod="pad" gradientTransform="matrix(37.06423 0 0 -37.06423 117.238 88.017)" gradientUnits="userSpaceOnUse" y2="0" x2="1" y1="0" x1="0"><stop stop-color="#fff" offset="0"/><stop stop-color="#ebac22" offset=".201"/><stop stop-color="#ebac22" offset="1"/></linearGradient><linearGradient id="f" spreadMethod="pad" gradientTransform="matrix(21.79695 0 0 -21.79695 114.985 41.867)" gradientUnits="userSpaceOnUse" y2="0" x2="1" y1="0" x1="0"><stop stop-color="#fff" offset="0"/><stop stop-color="#ebac22" offset=".201"/><stop stop-color="#ebac22" offset="1"/></linearGradient><linearGradient id="h" spreadMethod="pad" gradientTransform="matrix(48.38786 0 0 -48.38786 104.29 68.417)" gradientUnits="userSpaceOnUse" y2="0" x2="1" y1="0" x1="0"><stop stop-color="#fff" offset="0"/><stop stop-color="#ebac22" offset=".201"/><stop stop-color="#ebac22" offset="1"/></linearGradient></defs><g transform="matrix(1.33333 0 0 -1.33333 -6.39 66.5)"><rect fill="#fc0" width="168.75" height="50.149" x="4.793" y="-49.876" transform="scale(1 -1)" ry=".97"/><path fill="#191a21" d="M111.813 9.173c.69 0 1.227.062 1.61.185a1.8 1.8 0 01.935.697c.243.342.364.752.364 1.231 0 .832-.39 1.41-1.171 1.733.612.29.918.788.918 1.493 0 .44-.117.825-.352 1.152-.234.328-.512.535-.833.62-.322.084-.812.127-1.47.127h-2.974v-1.222h.8v-4.793h-.8V9.173zm-.477 6.016h.421c.378 0 .642-.06.794-.178.151-.118.227-.32.227-.608 0-.316-.078-.536-.234-.662-.156-.124-.4-.187-.73-.187h-.478zm0-2.857h.477c.406 0 .702-.074.888-.221.185-.148.279-.405.279-.773 0-.35-.087-.596-.258-.734-.172-.139-.475-.208-.909-.208h-.477zm9.942-3.159v2.305h-1.246v-1.082h-2.018v1.9h1.63v1.222h-1.63v1.67h2.018v-1.072h1.246v2.295h-5.741v-1.222h.781v-4.793h-.781V9.173zm6.397 0v2.305h-1.246v-1.082h-2.019v1.9h1.63v1.222h-1.63v1.67h2.019v-1.072h1.246v2.295h-5.742v-1.222h.783v-4.793h-.783V9.173zm1.957 0l.946 1.415.88-1.415h1.738v1.16h-.609l-1.068 1.504.918 1.213h.61v1.16h-1.368l-.895-1.379-.815 1.379h-1.742v-1.16h.656l.979-1.416-.98-1.3h-.655v-1.16zm6.144-1.114v1.63c.4-.42.841-.63 1.325-.63.594 0 1.069.244 1.424.733.356.49.534 1.107.534 1.853 0 .704-.172 1.32-.517 1.85-.345.528-.818.793-1.417.793-.496 0-.946-.237-1.349-.71v.632h-2.084v-1.16h.637V8.06h-.763V6.9h3.119v1.16zm1.55 2.597a.766.766 0 00-.637-.328.781.781 0 00-.674.365c-.169.242-.253.563-.253.962 0 .444.085.778.255 1.002.17.223.391.335.663.335a.773.773 0 00.649-.327c.164-.22.246-.549.246-.989 0-.462-.083-.801-.249-1.02m5.24-1.483v1.16h-.65v6.078h-2.16v-1.16h.713v-4.917h-.712v-1.16zm4.686.599c.455.475.682 1.117.682 1.925 0 .819-.23 1.463-.689 1.933a2.277 2.277 0 01-1.695.705 2.28 2.28 0 01-1.693-.705c-.46-.47-.691-1.114-.691-1.933s.23-1.463.69-1.933a2.28 2.28 0 011.694-.706c.68 0 1.248.238 1.702.714m-2.38.918c-.147.255-.222.578-.222.97 0 .958.299 1.437.895 1.437a.757.757 0 00.66-.362c.162-.242.244-.577.244-1.007 0-.489-.084-.848-.25-1.077a.774.774 0 00-.654-.344c-.3 0-.524.128-.672.383m5.969-.356v.619c0 .416.074.777.224 1.082.15.305.34.503.572.593.23.09.529.136.894.136v1.52a7.32 7.32 0 01-.234.004 1.45 1.45 0 01-1.023-.403 1.817 1.817 0 01-.555-.955v1.28h-2.112v-1.16h.786v-2.716h-.838v-1.16h3.19v1.16zm3.085 2.716v-2.716h-.688v-1.16h2.81v1.16h-.674v3.876h-2.136v-1.16zm3.34 0v-2.716h-.693v-1.16h2.838v1.16h-.699v2.273c.282.22.556.328.825.328.153 0 .263-.05.33-.15.067-.101.1-.289.1-.562v-3.05h2.132v1.16h-.684v2.01c0 1.296-.458 1.945-1.372 1.945-.45 0-.894-.182-1.33-.547v.469h-2.14v-1.16zm8.597 1.16v-.618c-.343.464-.779.696-1.306.696-.55 0-1.015-.242-1.396-.726-.38-.484-.57-1.105-.57-1.865 0-.756.184-1.378.554-1.866.37-.487.817-.73 1.342-.73.446 0 .905.234 1.376.702v-.385c0-.531-.11-.888-.33-1.072a1.225 1.225 0 00-.812-.276c-.369 0-.735.125-1.1.375l-.703-1.067c.443-.364 1.117-.546 2.023-.546 1.58 0 2.37.831 2.37 2.494v3.724h.75v1.16zm-.26-3.478c-.176-.224-.39-.336-.643-.336a.737.737 0 00-.649.361c-.158.242-.237.553-.237.935 0 .381.076.693.227.936a.73.73 0 00.659.364.767.767 0 00.665-.353c.162-.236.243-.557.243-.963 0-.406-.088-.72-.264-.944"/><g transform="translate(105.95 2.792) scale(.37463)" clip-path="url(#a)"><path fill="#ebac22" d="M6.501 23.567H167.75v1.036H6.501z"/></g><g transform="translate(105.95 2.792) scale(.37463)" clip-path="url(#b)"><path fill="#191a21" d="M154.97 72.448c0 13.995-11.346 25.339-25.34 25.339-13.995 0-25.34-11.344-25.34-25.339 0-4.008 1.908-7.797 3.566-11.167h-.004l.047-.082c.391-.791 18.95-26.993 18.95-26.993s2.345-3.312 4.72-.021l17.717 24.566s2.374 3.291 2.372 3.291c0 0 .002 0 0 0 0 0-.002 0 .827 1.685.83 1.684 2.484 4.713 2.484 8.721"/></g><g transform="translate(105.95 2.792) scale(.37463)" clip-path="url(#c)"><path fill="url(#d)" d="M117.239 94.557l37.064-16.31c-2.623 11.201-12.675 19.541-24.672 19.541a25.238 25.238 0 01-12.392-3.231"/></g><g transform="translate(105.95 2.792) scale(.37463)" clip-path="url(#e)"><path fill="url(#f)" d="M126.849 34.205s2.346-3.311 4.72-.019l5.214 7.228-21.798 9.592a8322.234 8322.234 0 0111.864-16.801"/></g><g transform="translate(105.95 2.792) scale(.37463)" clip-path="url(#g)"><path fill="url(#h)" d="M104.29 72.448c0-.657.052-1.308.145-1.953l40.477-17.81 4.375 6.066s2.374 3.291 2.372 3.291c0 0 .002 0 0 0 0 0-.003 0 .827 1.685.06.123.123.252.192.388l-45.53 20.033a25.231 25.231 0 01-2.858-11.7"/></g><g transform="translate(105.95 2.792) scale(.37463)" clip-path="url(#i)"><path fill="#191a21" d="M129.926 10.01c1.165 0 2.108.945 2.108 2.11a2.108 2.108 0 11-2.108-2.11M22.012 55.674c1.443-2.494 2.887-5.684 3.332-7.893l-2.281-.944c-.356 2.138-1.71 5.47-3.1 8.035zm-3.991 3.849v-13.72c0-1.3-.285-1.905-1.087-2.244-.82-.357-2.031-.41-3.76-.41-.106.64-.498 1.639-.818 2.245 1.157-.054 2.44-.054 2.832-.054.392.019.535.125.535.48v13.703zm-4.543-4.472c-.624-2.71-1.604-6.058-3.136-8.054-.498.374-1.443.89-2.013 1.158 1.46 1.818 2.352 4.954 2.744 7.305zm33.548.64c1.033-.677 2.245-1.71 2.833-2.494l-1.55-.926c-.534.748-1.711 1.835-2.744 2.566zm-1.39-10.066c-.231.196-.481.375-.713.552l.767.446h-2.53v-1.087zm-2.476 2.53h3.047v1.051H43.16zm-2.103 1.051h-2.833v-1.05h2.833zm6.147-2.583c1.069-.82 2.227-1.835 2.869-2.495l-1.657-1.086c-.25.267-.57.605-.927.944-4.58-.196-9.407-.357-12.614-.463l-.178 1.8c1.71.035 3.937.088 6.36.16v1.14H36.14v4.133h4.917v.748h2.103v-.748h5.256v-4.133zm-12.49 7.11c.642.426 1.248 1.192 1.658 1.852H34.5v2.993h6.663c-.124.302-.267.623-.41.89l2.014.41c.232-.392.499-.89.677-1.3h6.325v-2.993h-1.978v1.335H41.93c.535-.302 1.07-.623 1.408-.908l-1.14-1.104c-.517.48-1.532 1.122-2.334 1.496l.605.516h-4.062v-1.282l.089.143 1.479-.749c-.481-.802-1.087-1.728-1.835-2.352zm6.45-1.997c-.748 0-1.318.054-1.728.18a32.575 32.575 0 00-3.902-1.16c-.214.392-.748 1.122-1.104 1.48 1.354.23 2.725.552 3.99.961-.017.16-.017.34-.017.516v2.192h1.799v-2.049c1.942.767 3.635 1.8 4.74 3.047l1.567-.73c-1.051-1.194-2.494-2.174-4.08-2.994h1.889c.677 0 .819.143.89.927.357-.214 1.07-.428 1.568-.517-.213-1.479-.748-1.853-2.262-1.853zm33.621 4.793c1.195-1.052 2.673-2.53 3.368-3.546l-1.64-1.14c-.623.998-2.048 2.566-3.26 3.653zm-5.184-1.212h-1.71v3.635h10.155v-3.527h-1.8v1.727h-6.645zm2.993.41c-.872-1.532-2.298-3.1-3.58-4.062a12.658 12.658 0 01-1.445 1.497c1.212.765 2.441 1.977 3.154 3.207zm2.442-6.485c.907-1.355 2.28-2.619 3.651-3.35-.463-.374-1.086-1.122-1.407-1.638-1.212.837-2.388 2.137-3.314 3.581v-4.508h-2.013v4.472c-1.034-1.55-2.37-2.869-3.849-3.653-.284.463-.872 1.212-1.3 1.604 1.621.695 3.1 2.013 4.08 3.492h-3.03v1.889h4.099v1.763h2.013v-1.763h4.187v-1.889zM67.712 50.4c-.57-.196-1.122-.374-1.71-.57v-4.419c0-.944-.178-1.443-.73-1.746-.536-.338-1.32-.392-2.478-.392-.052.499-.301 1.318-.551 1.854a14.993 14.993 0 011.497-.019c.213 0 .303.054.303.285v3.778l-1.534-.517-.551 2.031c.588.16 1.3.357 2.085.588v3.171h-1.837v1.96h1.837v3.368H66v-3.368h1.445v-1.96h-1.444v-2.548l1.337.41z"/></g></g></svg>