<?xml version="1.0" encoding="UTF-8" standalone="no"?>
<svg
   xmlns:dc="http://purl.org/dc/elements/1.1/"
   xmlns:cc="http://creativecommons.org/ns#"
   xmlns:rdf="http://www.w3.org/1999/02/22-rdf-syntax-ns#"
   xmlns:svg="http://www.w3.org/2000/svg"
   xmlns="http://www.w3.org/2000/svg"
   xmlns:sodipodi="http://sodipodi.sourceforge.net/DTD/sodipodi-0.dtd"
   xmlns:inkscape="http://www.inkscape.org/namespaces/inkscape"
   sodipodi:docname="slogan.svg"
   inkscape:version="1.0 (4035a4fb49, 2020-05-01)"
   id="svg247"
   version="1.1"
   viewBox="0 0 90 30"
   height="30mm"
   width="90mm">
  <defs
     id="defs241">
    <clipPath
       id="clipPath28"
       clipPathUnits="userSpaceOnUse">
      <path
         id="path26"
         d="M 0,107.798 H 173.504 V 0 H 0 Z" />
    </clipPath>
    <clipPath
       id="clipPath44"
       clipPathUnits="userSpaceOnUse">
      <path
         id="path42"
         d="m 90.239,36.352 v -3.097 h 1.9 V 20.129 h -1.9 v -3.097 h 7.501 v 3.097 h -1.739 v 16.223 z m -47.575,0 v -3.264 h 2.087 V 20.297 h -2.087 v -3.265 h 15.325 v 6.153 h -3.325 v -2.888 h -5.388 v 5.069 h 4.35 v 3.264 h -4.35 v 4.458 h 5.388 v -2.861 h 3.325 v 6.125 z m -17.076,0 v -3.264 h 2.088 V 20.297 h -2.088 v -3.265 h 15.325 v 6.153 h -3.324 v -2.888 h -5.388 v 5.069 h 4.35 v 3.264 h -4.35 v 4.458 h 5.388 v -2.861 h 3.324 v 6.125 z m -17.875,0 V 33.088 H 9.85 V 20.297 H 7.713 v -3.265 h 7.938 c 1.841,0 3.272,0.165 4.294,0.494 v 0 c 1.02,0.327 1.854,0.948 2.499,1.861 v 0 c 0.646,0.912 0.969,2.006 0.969,3.285 v 0 c 0,2.221 -1.042,3.764 -3.125,4.625 v 0 c 1.633,0.778 2.45,2.105 2.45,3.986 v 0 c 0,1.175 -0.313,2.201 -0.937,3.076 v 0 c -0.625,0.875 -1.367,1.426 -2.225,1.653 v 0 c -0.859,0.227 -2.167,0.34 -3.925,0.34 v 0 z m 6.663,-3.264 h 1.125 c 1.009,0 1.714,-0.158 2.118,-0.472 v 0 c 0.404,-0.316 0.607,-0.857 0.607,-1.625 v 0 c 0,-0.843 -0.209,-1.43 -0.626,-1.764 v 0 c -0.416,-0.333 -1.066,-0.5 -1.949,-0.5 v 0 h -1.275 z m 0,-7.625 h 1.275 c 1.083,0 1.873,-0.197 2.369,-0.591 v 0 c 0.495,-0.394 0.743,-1.08 0.743,-2.061 v 0 c 0,-0.937 -0.229,-1.59 -0.688,-1.959 v 0 c -0.457,-0.371 -1.267,-0.555 -2.424,-0.555 v 0 h -1.275 z m 86.807,3.466 c -1.23,-1.256 -1.844,-2.975 -1.844,-5.161 v 0 c 0,-2.185 0.614,-3.905 1.844,-5.16 v 0 c 1.23,-1.255 2.736,-1.881 4.519,-1.881 v 0 c 1.817,0 3.331,0.634 4.543,1.903 v 0 c 1.214,1.268 1.819,2.981 1.819,5.138 v 0 c 0,2.186 -0.612,3.905 -1.837,5.161 v 0 c -1.224,1.253 -2.734,1.882 -4.525,1.882 v 0 c -1.783,0 -3.289,-0.629 -4.519,-1.882 m 2.713,-7.848 c -0.397,0.68 -0.594,1.544 -0.594,2.591 v 0 c 0,2.555 0.796,3.833 2.388,3.833 v 0 c 0.741,0 1.329,-0.321 1.762,-0.965 v 0 c 0.433,-0.643 0.65,-1.541 0.65,-2.687 v 0 c 0,-1.306 -0.223,-2.266 -0.669,-2.876 v 0 c -0.445,-0.611 -1.027,-0.918 -1.743,-0.918 v 0 c -0.801,0 -1.399,0.341 -1.794,1.022 m 48.82,7.667 c -1.017,-1.293 -1.525,-2.951 -1.525,-4.98 v 0 c 0,-2.019 0.493,-3.678 1.48,-4.98 v 0 c 0.989,-1.3 2.182,-1.951 3.582,-1.951 v 0 c 1.192,0 2.417,0.626 3.675,1.876 v 0 -1.028 c 0,-1.417 -0.294,-2.37 -0.882,-2.861 v 0 c -0.587,-0.491 -1.31,-0.736 -2.168,-0.736 v 0 c -0.985,0 -1.963,0.334 -2.938,1 v 0 l -1.875,-2.847 c 1.183,-0.973 2.983,-1.459 5.4,-1.459 v 0 c 4.217,0 6.326,2.219 6.326,6.658 v 0 9.94 h 2 v 3.098 h -5.863 v -1.65 c -0.917,1.237 -2.079,1.858 -3.487,1.858 v 0 c -1.467,0 -2.709,-0.648 -3.725,-1.938 m 3.069,-7.486 c -0.422,0.643 -0.632,1.474 -0.632,2.493 v 0 c 0,1.018 0.203,1.852 0.606,2.5 v 0 c 0.404,0.647 0.989,0.973 1.757,0.973 v 0 c 0.749,0 1.341,-0.315 1.774,-0.946 v 0 c 0.434,-0.629 0.651,-1.485 0.651,-2.57 v 0 c 0,-1.082 -0.237,-1.922 -0.706,-2.52 v 0 c -0.472,-0.597 -1.046,-0.895 -1.719,-0.895 v 0 c -0.734,0 -1.311,0.321 -1.731,0.965 m -14.945,7.965 v 1.251 h -5.713 V 27.38 h 1.851 v -7.251 h -1.851 v -3.097 h 7.575 v 3.097 h -1.862 v 6.07 c 0.75,0.584 1.483,0.875 2.201,0.875 v 0 c 0.407,0 0.701,-0.133 0.881,-0.403 v 0 c 0.179,-0.269 0.269,-0.768 0.269,-1.5 v 0 -8.139 h 5.687 v 3.097 h -1.825 v 5.362 c 0,3.463 -1.221,5.195 -3.662,5.195 v 0 c -1.2,0 -2.384,-0.487 -3.551,-1.459 m -19.857,0.381 c -0.771,-0.717 -1.264,-1.567 -1.481,-2.548 v 0 3.418 h -5.638 V 27.38 h 2.101 v -7.251 h -2.238 v -3.097 h 8.513 v 3.097 h -2.412 v 1.653 c 0,1.111 0.199,2.074 0.599,2.89 v 0 c 0.401,0.814 0.908,1.342 1.526,1.583 v 0 c 0.617,0.24 1.412,0.361 2.387,0.361 v 0 4.056 c -0.242,0.008 -0.45,0.014 -0.625,0.014 v 0 c -1.05,0 -1.96,-0.36 -2.732,-1.078 M 79.615,28.79 v 1.688 H 74.052 V 27.38 h 1.699 V 14.059 h -2.036 v -3.096 h 8.324 v 3.096 h -2.424 v 4.348 c 1.065,-1.12 2.244,-1.68 3.537,-1.68 v 0 c 1.583,0 2.85,0.653 3.8,1.958 v 0 c 0.95,1.306 1.424,2.955 1.424,4.945 v 0 c 0,1.88 -0.46,3.525 -1.381,4.937 v 0 c -0.921,1.411 -2.181,2.119 -3.781,2.119 v 0 c -1.325,0 -2.525,-0.632 -3.599,-1.896 m 0.637,-7.702 c -0.451,0.648 -0.676,1.505 -0.676,2.569 v 0 c 0,1.186 0.228,2.077 0.682,2.675 v 0 c 0.454,0.596 1.044,0.896 1.769,0.896 v 0 c 0.716,0 1.294,-0.293 1.731,-0.876 v 0 c 0.438,-0.584 0.656,-1.463 0.656,-2.64 v 0 c 0,-1.231 -0.22,-2.138 -0.663,-2.722 v 0 c -0.441,-0.583 -1.008,-0.874 -1.7,-0.874 v 0 c -0.749,0 -1.35,0.323 -1.799,0.972 m 45.976,9.39 V 27.38 h 1.837 v -7.251 h -1.837 v -3.097 h 7.5 v 3.097 h -1.8 v 10.349 z m -57.552,0 -2.387,-3.681 -2.176,3.681 H 59.464 V 27.38 h 1.75 l 2.612,-3.778 -2.612,-3.473 h -1.75 v -3.097 h 3.75 l 2.525,3.779 2.351,-3.779 h 4.637 v 3.097 h -1.625 l -2.851,4.014 2.45,3.237 h 1.626 v 3.098 z" />
    </clipPath>
    <clipPath
       id="clipPath54"
       clipPathUnits="userSpaceOnUse">
      <path
         id="path52"
         d="M 0,107.798 H 173.504 V 0 H 0 Z" />
    </clipPath>
    <clipPath
       id="clipPath66"
       clipPathUnits="userSpaceOnUse">
      <path
         id="path64"
         d="m 117.239,94.557 37.064,-16.31 c -2.623,11.201 -12.675,19.541 -24.672,19.541 v 0 c -4.503,0 -8.729,-1.175 -12.392,-3.231" />
    </clipPath>
    <linearGradient
       id="linearGradient78"
       spreadMethod="pad"
       gradientTransform="matrix(37.064228,0,0,-37.064228,117.23848,88.017418)"
       gradientUnits="userSpaceOnUse"
       y2="0"
       x2="1"
       y1="0"
       x1="0">
      <stop
         id="stop72"
         offset="0"
         style="stop-opacity:1;stop-color:#ffffff" />
      <stop
         id="stop74"
         offset="0.20091254"
         style="stop-opacity:1;stop-color:#ebac22" />
      <stop
         id="stop76"
         offset="1"
         style="stop-opacity:1;stop-color:#ebac22" />
    </linearGradient>
    <clipPath
       id="clipPath88"
       clipPathUnits="userSpaceOnUse">
      <path
         id="path86"
         d="m 126.849,34.205 c 0,0 2.346,-3.311 4.72,-0.019 v 0 l 5.214,7.228 -21.798,9.592 c 5.383,-7.649 11.864,-16.801 11.864,-16.801" />
    </clipPath>
    <linearGradient
       id="linearGradient100"
       spreadMethod="pad"
       gradientTransform="matrix(21.796947,0,0,-21.796947,114.98523,41.866676)"
       gradientUnits="userSpaceOnUse"
       y2="0"
       x2="1"
       y1="0"
       x1="0">
      <stop
         id="stop94"
         offset="0"
         style="stop-opacity:1;stop-color:#ffffff" />
      <stop
         id="stop96"
         offset="0.20091254"
         style="stop-opacity:1;stop-color:#ebac22" />
      <stop
         id="stop98"
         offset="1"
         style="stop-opacity:1;stop-color:#ebac22" />
    </linearGradient>
    <clipPath
       id="clipPath110"
       clipPathUnits="userSpaceOnUse">
      <path
         id="path108"
         d="m 104.29,72.448 c 0,-0.657 0.052,-1.308 0.145,-1.953 v 0 l 40.477,-17.81 4.375,6.066 c 0,0 2.374,3.291 2.372,3.291 v 0 c 0,0 0.002,0 0,0 v 0 c 0,0 -0.003,0 0.827,1.685 v 0 c 0.06,0.123 0.123,0.252 0.192,0.388 v 0 l -45.53,20.033 c -1.825,-3.499 -2.858,-7.48 -2.858,-11.7" />
    </clipPath>
    <linearGradient
       id="linearGradient122"
       spreadMethod="pad"
       gradientTransform="matrix(48.387863,0,0,-48.387863,104.29028,68.416664)"
       gradientUnits="userSpaceOnUse"
       y2="0"
       x2="1"
       y1="0"
       x1="0">
      <stop
         id="stop116"
         offset="0"
         style="stop-opacity:1;stop-color:#ffffff" />
      <stop
         id="stop118"
         offset="0.20091254"
         style="stop-opacity:1;stop-color:#ebac22" />
      <stop
         id="stop120"
         offset="1"
         style="stop-opacity:1;stop-color:#ebac22" />
    </linearGradient>
  </defs>
  <sodipodi:namedview
     inkscape:window-maximized="1"
     inkscape:window-y="-9"
     inkscape:window-x="-9"
     inkscape:window-height="1001"
     inkscape:window-width="1920"
     width="90mm"
     showgrid="false"
     inkscape:document-rotation="0"
     inkscape:current-layer="layer1"
     inkscape:document-units="mm"
     inkscape:cy="87.813595"
     inkscape:cx="192.68084"
     inkscape:zoom="3.959798"
     inkscape:pageshadow="2"
     inkscape:pageopacity="0.0"
     borderopacity="1.0"
     bordercolor="#666666"
     pagecolor="#ffffff"
     id="base" />
  <metadata
     id="metadata244">
    <rdf:RDF>
      <cc:Work
         rdf:about="">
        <dc:format>image/svg+xml</dc:format>
        <dc:type
           rdf:resource="http://purl.org/dc/dcmitype/StillImage" />
        <dc:title></dc:title>
      </cc:Work>
    </rdf:RDF>
  </metadata>
  <g
     id="layer1"
     inkscape:groupmode="layer"
     inkscape:label="图层 1">
    <g
       transform="matrix(0.17330876,0,0,-0.17330876,54.293952,21.101046)"
       id="g22">
      <g
         clip-path="url(#clipPath28)"
         id="g24">
        <g
           transform="translate(100.6166,62.1321)"
           id="g30">
          <path
             id="path32"
             style="fill:#ffffff;fill-opacity:1;fill-rule:nonzero;stroke:none"
             d="m 0,0 c -1.549,1.926 -1.618,2.25 -4.932,2.25 h -2.61 c -1.04,0.868 -2.379,1.39 -3.84,1.39 h -2.244 c -1.461,0 -2.8,-0.522 -3.841,-1.39 h -2.564 c -0.772,0.362 -1.631,0.57 -2.54,0.57 h -9.026 c -0.887,0.518 -1.917,0.82 -3.018,0.82 h -1.96 c -1.574,0 -3.003,-0.611 -4.073,-1.602 -0.293,0.083 -0.592,0.145 -0.894,0.183 -0.496,0.312 -1.041,0.553 -1.619,0.71 l -1.836,0.499 c -1.584,0.43 -3.209,0.185 -4.547,-0.579 -0.778,0.369 -1.649,0.575 -2.567,0.575 h -1.728 c -1.277,0 -2.458,-0.402 -3.431,-1.082 -0.35,0.064 -0.709,0.102 -1.077,0.102 h -3.271 c -1.361,1.079 -3.156,1.54 -4.928,1.18 l -2.014,-0.41 c -0.699,-0.142 -1.357,-0.405 -1.949,-0.77 h -3.107 c -1.576,0 -3.005,-0.612 -4.076,-1.605 -1.086,1.54 -2.876,2.55 -4.904,2.55 h -2.299 c -2.672,0 -4.935,-1.749 -5.711,-4.164 -0.862,-0.156 -1.689,-0.493 -2.417,-1.01 -1.3,-0.925 -2.178,-2.329 -2.44,-3.902 -0.387,-2.318 -1.111,-4.046 -1.502,-4.532 -1.154,-1.436 -1.584,-3.321 -1.169,-5.115 0.416,-1.793 1.632,-3.296 3.3,-4.079 0.255,-0.119 0.639,-0.331 0.866,-0.468 -2.805,-0.503 -4.936,-2.952 -4.936,-5.901 v -3.263 c 0,-1.843 0.83,-3.492 2.137,-4.592 v -3.609 c -1.307,-1.1 -2.137,-2.749 -2.137,-4.591 V -45.1 c 0,-3.314 2.687,-6 6.001,-6 h 7.937 c 2.492,0 4.498,0.256 6.133,0.781 0.18,0.059 0.354,0.128 0.53,0.194 0.942,-0.615 2.065,-0.975 3.275,-0.975 h 15.325 c 0.298,0 0.589,0.029 0.875,0.071 0.286,-0.042 0.577,-0.071 0.875,-0.071 h 15.325 c 0.251,0 0.496,0.02 0.738,0.05 0.242,-0.03 0.487,-0.05 0.737,-0.05 h 3.751 c 0.852,0 1.68,0.181 2.437,0.517 0.644,-0.287 1.342,-0.452 2.062,-0.498 v -0.088 c 0,-3.314 2.686,-6 6,-6 h 8.325 c 3.314,0 6.001,2.686 6.001,6 v 0.491 c 0.681,-0.27 1.422,-0.422 2.2,-0.422 h 7.5 c 1.054,0 2.044,0.273 2.904,0.752 1.555,-0.696 3.256,-1.058 5.059,-1.058 1.826,0 3.542,0.365 5.102,1.069 0.865,-0.485 1.861,-0.763 2.922,-0.763 h 8.165 c 0.534,-3.959 3.932,-7.022 8.035,-7.022 4.102,0 7.5,3.063 8.033,7.022 h 4.743 c 0.252,0 0.501,0.016 0.744,0.046 0.243,-0.03 0.492,-0.046 0.744,-0.046 h 2.003 c 0.269,-1.304 0.964,-2.524 2.062,-3.427 2.279,-1.873 5.378,-2.823 9.211,-2.823 4.743,0 7.563,1.921 9.093,3.532 2.144,2.257 3.232,5.328 3.232,9.126 v 5.467 c 1.227,1.099 2,2.696 2,4.473 v 3.097 c 0,3.314 -2.687,6 -6,6 h -5.863 c -0.349,0 -0.691,-0.029 -1.023,-0.087 -0.792,0.196 -1.617,0.295 -2.465,0.295 -2.24,0 -4.342,-0.694 -6.133,-1.994 -1.763,1.4 -3.916,1.994 -5.918,1.994 -0.703,0 -1.546,-0.074 -2.482,-0.303 -0.347,0.063 -0.703,0.095 -1.067,0.095 h -0.221 l 13.533,18.764 2.277,3.158 c 0.253,0.354 0.46,0.705 0.625,1.049 l 0.011,-0.004 c 0.028,0.055 0.159,0.325 0.804,1.635 l 0.167,0.337 c 1.025,2.057 2.933,5.886 2.933,11.032 0,17.281 -14.059,31.34 -31.34,31.34 -17.282,0 -31.34,-14.059 -31.34,-31.34 C -2.327,5 0,0 0,0" />
        </g>
        <g
           transform="translate(15.6508,17.032)"
           id="g34">
          <path
             id="path36"
             style="fill:#191a21;fill-opacity:1;fill-rule:nonzero;stroke:none"
             d="m 0,0 c 1.841,0 3.273,0.165 4.294,0.493 1.02,0.328 1.854,0.949 2.499,1.861 0.647,0.913 0.97,2.007 0.97,3.286 0,2.221 -1.042,3.763 -3.125,4.625 1.633,0.777 2.45,2.105 2.45,3.986 0,1.176 -0.313,2.201 -0.938,3.076 C 5.525,18.202 4.783,18.753 3.925,18.979 3.067,19.206 1.758,19.32 0,19.32 H -7.937 V 16.057 H -5.8 V 3.265 H -7.937 V 0 Z m -1.275,16.057 h 1.125 c 1.008,0 1.714,-0.159 2.119,-0.473 0.404,-0.315 0.606,-0.856 0.606,-1.625 0,-0.843 -0.208,-1.431 -0.625,-1.765 -0.417,-0.333 -1.067,-0.5 -1.95,-0.5 h -1.275 z m 0,-7.626 H 0 c 1.083,0 1.873,-0.197 2.369,-0.59 C 2.864,7.447 3.113,6.76 3.113,5.778 3.113,4.843 2.883,4.189 2.425,3.819 1.966,3.449 1.158,3.265 0,3.265 H -1.275 Z M 25.263,0 V 6.153 H 21.937 V 3.265 H 16.55 v 5.069 h 4.35 v 3.264 h -4.35 v 4.459 h 5.387 v -2.862 h 3.326 V 19.32 H 9.938 v -3.263 h 2.087 V 3.265 H 9.938 V 0 Z M 42.338,0 V 6.153 H 39.013 V 3.265 h -5.388 v 5.069 h 4.351 v 3.264 h -4.351 v 4.459 h 5.388 v -2.862 h 3.325 V 19.32 H 27.013 v -3.263 h 2.088 V 3.265 H 27.013 V 0 Z M 47.563,0 50.088,3.778 52.438,0 h 4.638 v 3.098 h -1.625 l -2.85,4.013 2.45,3.237 h 1.625 v 3.097 h -3.65 l -2.387,-3.68 -2.176,3.68 h -4.65 v -3.097 h 1.75 L 48.176,6.57 45.563,3.098 h -1.75 V 0 Z m 16.401,-2.973 v 4.348 c 1.066,-1.12 2.245,-1.681 3.537,-1.681 1.583,0 2.851,0.654 3.8,1.959 0.95,1.306 1.426,2.953 1.426,4.945 0,1.879 -0.461,3.525 -1.382,4.937 -0.921,1.412 -2.181,2.118 -3.781,2.118 -1.325,0 -2.525,-0.632 -3.6,-1.895 v 1.687 h -5.563 v -3.097 h 1.7 V -2.973 h -2.038 v -3.096 h 8.326 v 3.096 z m 4.137,6.931 c -0.442,-0.582 -1.008,-0.874 -1.7,-0.874 -0.75,0 -1.35,0.323 -1.799,0.972 -0.451,0.648 -0.676,1.505 -0.676,2.569 0,1.186 0.227,2.077 0.681,2.674 0.455,0.597 1.044,0.896 1.769,0.896 0.717,0 1.294,-0.292 1.731,-0.875 0.438,-0.584 0.657,-1.464 0.657,-2.639 0,-1.232 -0.221,-2.139 -0.663,-2.723 M 82.089,0 V 3.098 H 80.352 V 19.32 h -5.763 v -3.097 h 1.9 V 3.098 h -1.9 V 0 Z m 12.507,1.598 c 1.213,1.268 1.819,2.981 1.819,5.138 0,2.186 -0.613,3.906 -1.838,5.16 -1.225,1.254 -2.733,1.882 -4.525,1.882 -1.783,0 -3.29,-0.628 -4.519,-1.882 -1.229,-1.254 -1.844,-2.974 -1.844,-5.16 0,-2.185 0.615,-3.905 1.844,-5.16 1.229,-1.254 2.736,-1.882 4.519,-1.882 1.816,0 3.331,0.635 4.544,1.904 m -6.351,2.451 c -0.395,0.68 -0.594,1.544 -0.594,2.591 0,2.555 0.796,3.833 2.388,3.833 0.741,0 1.329,-0.322 1.763,-0.965 0.432,-0.645 0.649,-1.54 0.649,-2.688 0,-1.305 -0.222,-2.264 -0.668,-2.876 -0.446,-0.61 -1.027,-0.916 -1.744,-0.916 -0.8,0 -1.398,0.34 -1.794,1.021 M 104.177,3.098 V 4.75 c 0,1.111 0.2,2.074 0.6,2.89 0.4,0.814 0.909,1.341 1.525,1.583 0.617,0.24 1.413,0.361 2.387,0.361 v 4.056 c -0.241,0.008 -0.45,0.013 -0.625,0.013 -1.049,0 -1.96,-0.358 -2.731,-1.076 -0.77,-0.718 -1.265,-1.567 -1.481,-2.549 v 3.417 h -5.638 v -3.097 h 2.1 V 3.098 H 98.076 V 0 h 8.514 v 3.098 z m 8.237,7.25 v -7.25 h -1.837 V 0 h 7.5 v 3.098 h -1.8 v 10.347 h -5.7 v -3.097 z m 8.913,0 v -7.25 h -1.849 V 0 h 7.575 v 3.098 h -1.864 v 6.069 c 0.751,0.584 1.484,0.875 2.201,0.875 0.408,0 0.702,-0.134 0.881,-0.402 0.179,-0.269 0.269,-0.769 0.269,-1.5 V 0 h 5.688 v 3.098 h -1.826 v 5.361 c 0,3.463 -1.22,5.194 -3.662,5.194 -1.2,0 -2.384,-0.486 -3.551,-1.459 v 1.251 h -5.711 v -3.097 z m 22.95,3.097 v -1.649 c -0.916,1.238 -2.079,1.857 -3.487,1.857 -1.467,0 -2.708,-0.645 -3.726,-1.937 -1.015,-1.292 -1.524,-2.951 -1.524,-4.98 0,-2.018 0.494,-3.678 1.481,-4.979 0.988,-1.301 2.182,-1.951 3.582,-1.951 1.191,0 2.417,0.625 3.674,1.875 V 0.653 c 0,-1.417 -0.293,-2.37 -0.881,-2.861 -0.587,-0.49 -1.31,-0.736 -2.168,-0.736 -0.984,0 -1.963,0.333 -2.938,1 l -1.875,-2.847 c 1.184,-0.973 2.983,-1.459 5.4,-1.459 4.217,0 6.326,2.22 6.326,6.658 v 9.94 h 2 v 3.097 z M 143.584,4.16 c -0.471,-0.597 -1.044,-0.895 -1.719,-0.895 -0.733,0 -1.31,0.321 -1.731,0.964 -0.421,0.644 -0.632,1.475 -0.632,2.494 0,1.018 0.203,1.851 0.606,2.5 0.405,0.648 0.991,0.972 1.757,0.972 0.75,0 1.342,-0.315 1.776,-0.944 0.432,-0.63 0.649,-1.486 0.649,-2.57 0,-1.083 -0.235,-1.923 -0.706,-2.521" />
        </g>
      </g>
    </g>
    <g
       transform="matrix(0.17330876,0,0,-0.17330876,54.293952,21.101046)"
       id="g38">
      <g
         clip-path="url(#clipPath44)"
         id="g40">
        <path
           id="path46"
           style="fill:#ebac22;fill-opacity:1;fill-rule:nonzero;stroke:none"
           d="M 6.501,23.567 H 167.75 v 1.036 H 6.501 Z" />
      </g>
    </g>
    <g
       transform="matrix(0.17330876,0,0,-0.17330876,54.293952,21.101046)"
       id="g48">
      <g
         clip-path="url(#clipPath54)"
         id="g50">
        <g
           transform="translate(154.9691,72.448)"
           id="g56">
          <path
             id="path58"
             style="fill:#191a21;fill-opacity:1;fill-rule:nonzero;stroke:none"
             d="m 0,0 c 0,13.995 -11.345,25.339 -25.34,25.339 -13.994,0 -25.339,-11.344 -25.339,-25.339 0,-4.008 1.908,-7.797 3.566,-11.167 h -0.004 l 0.047,-0.082 c 0.391,-0.791 18.949,-26.993 18.949,-26.993 0,0 2.346,-3.312 4.72,-0.021 l 17.718,24.566 c 0,0 2.374,3.291 2.372,3.291 0,0 0.002,0 0,0 0,0 -0.002,0 0.827,1.685 C -1.655,-7.037 0,-4.008 0,0" />
        </g>
      </g>
    </g>
    <g
       transform="matrix(0.17330876,0,0,-0.17330876,54.293952,21.101046)"
       id="g60">
      <g
         clip-path="url(#clipPath66)"
         id="g62">
        <g
           id="g68">
          <g
             id="g70">
            <path
               id="path80"
               style="fill:url(#linearGradient78);stroke:none"
               d="m 117.239,94.557 37.064,-16.31 c -2.623,11.201 -12.675,19.541 -24.672,19.541 v 0 c -4.503,0 -8.729,-1.175 -12.392,-3.231" />
          </g>
        </g>
      </g>
    </g>
    <g
       transform="matrix(0.17330876,0,0,-0.17330876,54.293952,21.101046)"
       id="g82">
      <g
         clip-path="url(#clipPath88)"
         id="g84">
        <g
           id="g90">
          <g
             id="g92">
            <path
               id="path102"
               style="fill:url(#linearGradient100);stroke:none"
               d="m 126.849,34.205 c 0,0 2.346,-3.311 4.72,-0.019 v 0 l 5.214,7.228 -21.798,9.592 c 5.383,-7.649 11.864,-16.801 11.864,-16.801" />
          </g>
        </g>
      </g>
    </g>
    <g
       transform="matrix(0.17330876,0,0,-0.17330876,54.293952,21.101046)"
       id="g104">
      <g
         clip-path="url(#clipPath110)"
         id="g106">
        <g
           id="g112">
          <g
             id="g114">
            <path
               id="path124"
               style="fill:url(#linearGradient122);stroke:none"
               d="m 104.29,72.448 c 0,-0.657 0.052,-1.308 0.145,-1.953 v 0 l 40.477,-17.81 4.375,6.066 c 0,0 2.374,3.291 2.372,3.291 v 0 c 0,0 0.002,0 0,0 v 0 c 0,0 -0.003,0 0.827,1.685 v 0 c 0.06,0.123 0.123,0.252 0.192,0.388 v 0 l -45.53,20.033 c -1.825,-3.499 -2.858,-7.48 -2.858,-11.7" />
          </g>
        </g>
      </g>
    </g>
    <g
       transform="matrix(0.17330876,0,0,-0.17330876,76.811299,19.366139)"
       id="g134">
      <path
         id="path136"
         style="fill:#191a21;fill-opacity:1;fill-rule:nonzero;stroke:none"
         d="M 0,0 C 1.165,0 2.108,0.944 2.108,2.109 2.108,3.273 1.165,4.218 0,4.218 -1.164,4.218 -2.108,3.273 -2.108,2.109 -2.108,0.944 -1.164,0 0,0" />
    </g>
    <g
       transform="matrix(0.17330876,0,0,-0.17330876,58.108755,11.452323)"
       id="g138">
      <path
         id="path140"
         style="fill:#191a21;fill-opacity:1;fill-rule:nonzero;stroke:none"
         d="M 0,0 C 1.443,-2.494 2.887,-5.684 3.332,-7.893 L 1.051,-8.837 c -0.356,2.138 -1.71,5.47 -3.1,8.035 z M -3.991,3.849 V -9.87 c 0,-1.301 -0.285,-1.906 -1.087,-2.245 -0.819,-0.357 -2.031,-0.41 -3.759,-0.41 -0.107,0.641 -0.499,1.639 -0.819,2.245 1.157,-0.054 2.441,-0.054 2.832,-0.054 0.392,0.019 0.535,0.125 0.535,0.481 V 3.849 Z m -4.543,-4.472 c -0.624,-2.709 -1.604,-6.058 -3.136,-8.054 -0.498,0.374 -1.443,0.891 -2.013,1.158 1.461,1.818 2.352,4.954 2.744,7.305 z" />
    </g>
    <g
       transform="matrix(0.17330876,0,0,-0.17330876,62.73162,11.44929)"
       id="g142">
      <path
         id="path144"
         style="fill:#191a21;fill-opacity:1;fill-rule:nonzero;stroke:none"
         d="M 0,0 C 1.033,-0.677 2.245,-1.71 2.833,-2.494 L 1.283,-3.42 c -0.534,0.748 -1.711,1.835 -2.744,2.566 z m -1.39,-10.066 c -0.231,0.196 -0.481,0.375 -0.713,0.552 l 0.767,0.446 h -2.53 v -1.087 z m -2.476,2.53 h 3.047 v 1.051 h -3.047 z m -2.103,1.051 h -2.833 v -1.051 h 2.833 z m 6.147,-2.583 c 1.069,-0.82 2.227,-1.835 2.869,-2.495 L 1.39,-12.649 c -0.25,0.267 -0.57,0.605 -0.927,0.944 -4.579,-0.196 -9.407,-0.357 -12.614,-0.463 l -0.178,1.799 c 1.71,0.036 3.937,0.089 6.36,0.16 v 1.141 h -4.917 v 4.133 h 4.917 v 0.748 h 2.103 V -4.935 H 1.39 v -4.133 z m -12.49,7.109 c 0.642,0.427 1.248,1.193 1.658,1.853 h -1.871 v 2.993 h 6.663 c -0.124,0.302 -0.267,0.623 -0.409,0.89 l 2.013,0.41 c 0.232,-0.392 0.499,-0.891 0.677,-1.3 H 2.744 V -0.106 H 0.766 v 1.335 h -5.862 c 0.535,-0.302 1.07,-0.623 1.408,-0.908 l -1.14,-1.104 c -0.517,0.48 -1.532,1.122 -2.334,1.496 l 0.605,0.516 h -4.062 v -1.282 l 0.089,0.143 1.479,-0.749 c -0.481,-0.802 -1.087,-1.728 -1.835,-2.352 z m 6.45,-1.996 c -0.748,0 -1.318,0.054 -1.728,0.179 -1.265,-0.464 -2.583,-0.856 -3.902,-1.159 -0.214,0.392 -0.748,1.122 -1.104,1.479 1.354,0.231 2.725,0.553 3.991,0.962 -0.018,0.16 -0.018,0.339 -0.018,0.516 v 2.192 h 1.799 v -2.049 c 1.942,0.767 3.635,1.8 4.74,3.047 l 1.567,-0.731 c -1.051,-1.193 -2.494,-2.173 -4.08,-2.993 h 1.889 c 0.677,0 0.819,0.143 0.891,0.927 0.356,-0.214 1.069,-0.428 1.567,-0.517 -0.213,-1.479 -0.748,-1.853 -2.262,-1.853 z" />
    </g>
    <g
       transform="matrix(0.17330876,0,0,-0.17330876,67.254934,11.304075)"
       id="g150">
      <path
         id="path152"
         style="fill:#191a21;fill-opacity:1;fill-rule:nonzero;stroke:none"
         d="m 0,0 c 1.194,-1.052 2.672,-2.53 3.367,-3.546 l -1.639,-1.14 c -0.624,0.998 -2.049,2.566 -3.26,3.653 z m -5.185,-1.212 h -1.71 V 2.423 H 3.261 v -3.527 h -1.8 v 1.727 h -6.646 z m 2.994,0.41 c -0.873,-1.532 -2.299,-3.1 -3.581,-4.062 -0.286,0.374 -1.016,1.14 -1.444,1.497 1.212,0.765 2.441,1.977 3.154,3.207 z M 0.25,-7.287 c 0.908,-1.355 2.28,-2.619 3.652,-3.35 -0.464,-0.374 -1.087,-1.122 -1.408,-1.638 -1.211,0.837 -2.387,2.137 -3.313,3.581 v -4.508 h -2.014 v 4.472 c -1.033,-1.55 -2.37,-2.869 -3.848,-3.653 -0.285,0.463 -0.873,1.212 -1.301,1.604 1.622,0.695 3.1,2.013 4.08,3.492 h -3.029 v 1.889 h 4.098 v 1.763 h 2.014 v -1.763 h 4.186 v -1.889 z m -7.323,1.158 c -0.57,-0.196 -1.123,-0.374 -1.711,-0.57 v -4.419 c 0,-0.944 -0.178,-1.443 -0.73,-1.746 -0.535,-0.338 -1.319,-0.392 -2.477,-0.392 -0.053,0.499 -0.302,1.318 -0.552,1.854 0.642,-0.036 1.283,-0.036 1.497,-0.019 0.213,0 0.303,0.054 0.303,0.285 v 3.778 l -1.533,-0.517 -0.552,2.031 c 0.588,0.16 1.301,0.357 2.085,0.588 v 3.171 h -1.836 v 1.96 h 1.836 v 3.368 h 1.959 v -3.368 h 1.444 v -1.96 h -1.444 v -2.548 l 1.337,0.41 z" />
    </g>
    <text
       id="text465"
       y="23.319267"
       x="55.525242"
       style="font-style:normal;font-variant:normal;font-weight:normal;font-stretch:normal;font-size:2.82222px;line-height:1.25;font-family:'Source Han Sans CN';-inkscape-font-specification:'Source Han Sans CN';stroke-width:0.264583"
       xml:space="preserve"><tspan
         style="font-style:normal;font-variant:normal;font-weight:normal;font-stretch:normal;font-size:2.82222px;font-family:'Source Han Sans CN';-inkscape-font-specification:'Source Han Sans CN';stroke-width:0.264583"
         y="23.319267"
         x="55.525242"
         id="tspan463"
         sodipodi:role="line">发现身边世界的精彩！</tspan></text>
  </g>
</svg>
